<?xml version="1.0" encoding="utf-8"?>
<!-- Generator: Adobe Illustrator 14.0.0, SVG Export Plug-In . SVG Version: 6.00 Build 43363)  -->
<!DOCTYPE svg PUBLIC "-//W3C//DTD SVG 1.1//EN" "http://www.w3.org/Graphics/SVG/1.1/DTD/svg11.dtd">
<svg version="1.1" id="Layer_1" xmlns="http://www.w3.org/2000/svg" xmlns:xlink="http://www.w3.org/1999/xlink" x="0px" y="0px"
	 width="226.77px" height="153.07px" viewBox="0 0 226.77 153.07" enable-background="new 0 0 226.77 153.07" xml:space="preserve">
<g>
	<rect x="31.683" y="9.414" fill="#FFFFFF" width="169.631" height="103.186"/>
	<path d="M202.396,113.684H30.6V8.331h171.796V113.684L202.396,113.684z M32.766,111.518H200.23V10.497H32.766V111.518
		L32.766,111.518z"/>
</g>
<g>
	<rect x="39.01" y="15.739" fill="#FFFFFF" width="154.978" height="90.537"/>
	<path d="M195.07,107.357H37.928V14.656H195.07V107.357L195.07,107.357z M40.093,105.191h152.813v-88.37H40.093V105.191
		L40.093,105.191z"/>
</g>
<g>
	<line fill="#FFFFFF" x1="88.345" y1="15.739" x2="88.345" y2="106.275"/>
	<polygon points="89.428,106.275 87.262,106.275 87.262,15.739 89.428,15.739 89.428,106.275 	"/>
</g>
<g>
	<line fill="#FFFFFF" x1="144.648" y1="15.739" x2="144.648" y2="106.275"/>
	<polygon points="145.73,106.275 143.564,106.275 143.564,15.739 145.73,15.739 145.73,106.275 	"/>
</g>
<g>
	<line fill="#FFFFFF" x1="39.01" y1="61.007" x2="193.988" y2="61.007"/>
	<polygon points="193.988,62.089 39.01,62.089 39.01,59.924 193.988,59.924 193.988,62.089 	"/>
</g>
<g>
	<path fill="#FFFFFF" d="M54.29,40.382c0,0-1.865,14.156,10.651,14.156c0,0,10.121,0.664,10.121-14.156"/>
	<path d="M65.134,55.625c-0.165-0.001-0.227-0.011-0.275-0.006c-3.66,0-6.587-1.182-8.628-3.51
		c-3.936-4.487-3.054-11.569-3.016-11.869l2.148,0.282c-0.009,0.063-0.786,6.425,2.502,10.166c1.613,1.836,3.994,2.767,7.075,2.767
		c0.085-0.002,3.061,0.144,5.522-2.187c2.334-2.207,3.517-5.87,3.517-10.887h2.165c0,5.662-1.423,9.866-4.231,12.496
		C69.197,55.424,66.056,55.625,65.134,55.625L65.134,55.625z"/>
</g>
<path d="M53.357,41.581c0,0,6.79-1.825,9.488-8.116c0,0,5.192,7.69,12.982,8.589c0,0,6.973-19.276-11.201-17.878
	C64.626,24.176,48.262,21.479,53.357,41.581z"/>
<polygon points="60.549,43.207 58.383,43.207 58.383,41.278 60.549,41.278 60.549,43.207 "/>
<polygon points="69.346,43.207 67.181,43.207 67.181,41.278 69.346,41.278 69.346,43.207 "/>
<path d="M64.309,50.685c-2.472,0-4.509-0.968-5.532-2.663l1.853-1.121c0.818,1.354,2.747,1.721,4.261,1.596
	c0.466-0.036,0.979-0.18,1.342-0.376c0.563-0.303,1.171-0.832,1.414-1.228l1.844,1.138c-0.541,0.875-1.537,1.622-2.227,1.994
	c-0.632,0.342-1.436,0.572-2.207,0.631C64.804,50.675,64.554,50.685,64.309,50.685L64.309,50.685z"/>
<g>
	<path fill="#FFFFFF" d="M107.04,84.773c0,0-1.865,14.156,10.652,14.156c0,0,10.121,0.664,10.121-14.156"/>
	<path d="M117.883,100.016c-0.164,0-0.223-0.014-0.273-0.006c-3.662,0-6.588-1.182-8.628-3.51
		c-3.936-4.486-3.054-11.568-3.016-11.869l2.148,0.283c-0.009,0.064-0.787,6.424,2.501,10.166c1.614,1.836,3.995,2.768,7.077,2.768
		c0.088-0.004,3.061,0.143,5.521-2.188c2.334-2.207,3.518-5.869,3.518-10.887h2.164c0,5.662-1.422,9.867-4.23,12.496
		C121.945,99.816,118.807,100.016,117.883,100.016L117.883,100.016z"/>
</g>
<path d="M106.107,85.973c0,0,6.79-1.824,9.489-8.117c0,0,5.191,7.691,12.982,8.589c0,0,6.973-19.274-11.201-17.878
	C117.377,68.567,101.012,65.872,106.107,85.973z"/>
<polygon points="113.298,87.6 111.133,87.6 111.133,85.67 113.298,85.67 113.298,87.6 "/>
<polygon points="122.096,87.6 119.932,87.6 119.932,85.67 122.096,85.67 122.096,87.6 "/>
<path d="M117.059,95.076c-2.473,0-4.508-0.967-5.532-2.662l1.853-1.121c0.818,1.355,2.744,1.719,4.261,1.596
	c0.465-0.035,0.979-0.18,1.34-0.377c0.563-0.303,1.172-0.832,1.416-1.227l1.844,1.137c-0.541,0.877-1.537,1.623-2.227,1.994
	c-0.633,0.342-1.436,0.572-2.209,0.633C117.555,95.066,117.305,95.076,117.059,95.076L117.059,95.076z"/>
<g>
	<path fill="#FFFFFF" d="M158.232,40.382c0,0-1.865,14.156,10.652,14.156c0,0,10.121,0.664,10.121-14.156"/>
	<path d="M169.076,55.625c-0.162-0.001-0.24-0.011-0.273-0.006c-3.662,0-6.588-1.182-8.629-3.51
		c-3.936-4.487-3.053-11.569-3.016-11.869l2.148,0.282c-0.008,0.063-0.787,6.425,2.502,10.166c1.613,1.836,3.994,2.767,7.076,2.767
		c0.09-0.002,3.061,0.144,5.521-2.187c2.334-2.207,3.518-5.87,3.518-10.887h2.164c0,5.662-1.422,9.866-4.23,12.496
		C173.139,55.424,169.998,55.625,169.076,55.625L169.076,55.625z"/>
</g>
<path d="M157.301,41.581c0,0,4.145-0.922,6.842-7.213c0,0,7.838,6.787,15.629,7.686c0,0,6.973-17.813-11.201-16.415
	C168.57,25.639,152.205,21.479,157.301,41.581z"/>
<polygon points="164.492,43.207 162.326,43.207 162.326,41.278 164.492,41.278 164.492,43.207 "/>
<polygon points="173.289,43.207 171.125,43.207 171.125,41.278 173.289,41.278 173.289,43.207 "/>
<path d="M168.252,50.685c-2.473,0-4.508-0.968-5.531-2.663l1.852-1.121c0.816,1.354,2.738,1.721,4.262,1.596
	c0.465-0.036,0.979-0.18,1.34-0.376c0.563-0.303,1.172-0.832,1.416-1.228l1.844,1.138c-0.541,0.875-1.537,1.622-2.227,1.994
	c-0.633,0.342-1.436,0.572-2.209,0.631C168.748,50.675,168.498,50.685,168.252,50.685L168.252,50.685z"/>
<g>
	<path fill="#FFFFFF" d="M106.033,40.382c0,0-1.865,14.156,10.653,14.156c0,0,10.121,0.664,10.121-14.156"/>
	<path d="M116.877,55.625c-0.162-0.001-0.234-0.011-0.275-0.006c-3.66,0-6.586-1.182-8.627-3.51
		c-3.936-4.487-3.054-11.569-3.016-11.869l2.148,0.282c-0.009,0.063-0.787,6.425,2.502,10.166c1.613,1.836,3.994,2.767,7.077,2.767
		c0.092-0.002,3.059,0.144,5.521-2.187c2.334-2.207,3.516-5.87,3.516-10.887h2.166c0,5.662-1.424,9.866-4.232,12.496
		C120.939,55.424,117.799,55.625,116.877,55.625L116.877,55.625z"/>
</g>
<path d="M105.1,41.622c0,0,6.79-1.664,9.49-7.401c0,0,5.191,7.014,12.98,7.833c0,0,6.973-17.58-11.201-16.305
	C116.369,25.749,100.005,23.29,105.1,41.622z"/>
<polygon points="112.292,43.207 110.126,43.207 110.126,41.278 112.292,41.278 112.292,43.207 "/>
<polygon points="121.09,43.207 118.924,43.207 118.924,41.278 121.09,41.278 121.09,43.207 "/>
<path d="M116.053,50.685c-2.473,0-4.509-0.968-5.533-2.663l1.853-1.121c0.818,1.354,2.743,1.721,4.262,1.596
	c0.465-0.036,0.979-0.18,1.34-0.376c0.563-0.303,1.172-0.832,1.414-1.228l1.844,1.138c-0.541,0.875-1.537,1.622-2.227,1.994
	c-0.631,0.342-1.436,0.572-2.207,0.631C116.547,50.675,116.297,50.685,116.053,50.685L116.053,50.685z"/>
<path d="M104.863,38.993c0.066,0.192-0.109,0.667-0.144,0.856c-0.389,2.177-0.552,4.572-1.983,6.385
	c-0.394,0.499-0.886,0.988-0.929,1.661c-0.033,0.554,0.519,0.903,0.978,1.088c1.118,0.451,2.373,0.503,3.557,0.664
	c0.18,0.024,2.115,0.051,2.1,0.01C108.439,49.653,104.863,38.994,104.863,38.993z"/>
<path d="M128.189,38.993c-0.066,0.192,0.109,0.667,0.143,0.856c0.389,2.177,0.553,4.572,1.984,6.385
	c0.393,0.499,0.887,0.988,0.928,1.661c0.035,0.554-0.518,0.903-0.977,1.088c-1.119,0.451-2.373,0.503-3.557,0.664
	c-0.18,0.024-2.115,0.051-2.1,0.01C124.613,49.653,128.189,38.994,128.189,38.993z"/>
<g>
	<path fill="#FFFFFF" d="M159.27,84.262c0,0-1.865,14.156,10.65,14.156c0,0,10.121,0.664,10.121-14.156"/>
	<path d="M170.113,99.504c-0.162,0-0.234-0.012-0.275-0.006c-3.66,0-6.588-1.182-8.627-3.51c-3.936-4.486-3.055-11.568-3.016-11.869
		l2.148,0.283c-0.01,0.064-0.787,6.424,2.502,10.166c1.613,1.836,3.994,2.768,7.074,2.768c0.094-0.004,3.061,0.143,5.521-2.188
		c2.336-2.207,3.518-5.869,3.518-10.887h2.166c0,5.662-1.424,9.867-4.232,12.496C174.176,99.305,171.035,99.504,170.113,99.504
		L170.113,99.504z"/>
</g>
<path d="M158.336,85.502c0,0,6.791-1.664,9.488-7.402c0,0,5.193,7.014,12.982,7.834c0,0,6.973-17.579-11.201-16.304
	C169.605,69.63,153.242,67.171,158.336,85.502z"/>
<polygon points="165.529,87.088 163.363,87.088 163.363,85.158 165.529,85.158 165.529,87.088 "/>
<polygon points="174.326,87.088 172.16,87.088 172.16,85.158 174.326,85.158 174.326,87.088 "/>
<path d="M169.289,94.564c-2.473,0-4.51-0.967-5.533-2.662l1.854-1.121c0.818,1.355,2.746,1.717,4.26,1.596
	c0.467-0.035,0.98-0.18,1.342-0.377c0.563-0.303,1.172-0.832,1.414-1.227l1.844,1.137c-0.541,0.877-1.537,1.623-2.227,1.994
	c-0.631,0.342-1.436,0.572-2.207,0.633C169.783,94.555,169.533,94.564,169.289,94.564L169.289,94.564z"/>
<path d="M158.1,82.873c0.064,0.191-0.109,0.666-0.145,0.855c-0.389,2.178-0.551,4.572-1.982,6.387
	c-0.395,0.498-0.887,0.986-0.93,1.66c-0.033,0.555,0.52,0.902,0.979,1.088c1.117,0.451,2.371,0.504,3.557,0.664
	c0.18,0.023,2.113,0.051,2.1,0.01C161.676,93.533,158.1,82.873,158.1,82.873z"/>
<path d="M181.426,82.873c-0.066,0.191,0.109,0.666,0.143,0.855c0.389,2.178,0.553,4.572,1.984,6.387
	c0.393,0.498,0.885,0.986,0.928,1.66c0.033,0.555-0.518,0.902-0.977,1.088c-1.119,0.451-2.373,0.504-3.557,0.664
	c-0.18,0.023-2.115,0.051-2.1,0.01C177.85,93.533,181.426,82.873,181.426,82.873z"/>
<g>
	<path fill="#FFFFFF" d="M53.642,84.773c0,0-1.865,14.156,10.652,14.156c0,0,10.121,0.664,10.121-14.156"/>
	<path d="M64.487,100.016c-0.163,0-0.241-0.014-0.275-0.006c-3.66,0-6.587-1.182-8.628-3.51c-3.936-4.486-3.054-11.568-3.016-11.869
		l2.148,0.283c-0.008,0.064-0.786,6.424,2.502,10.166c1.613,1.836,3.995,2.768,7.076,2.768c0.084-0.004,3.06,0.143,5.521-2.188
		c2.335-2.207,3.517-5.869,3.517-10.887h2.166c0,5.662-1.424,9.867-4.231,12.496C68.549,99.816,65.409,100.016,64.487,100.016
		L64.487,100.016z"/>
</g>
<path d="M52.709,86.014c0,0,6.791-1.664,9.489-7.402c0,0,5.191,7.014,12.982,7.834c0,0,6.972-17.579-11.202-16.304
	C63.979,70.142,47.616,67.683,52.709,86.014z"/>
<polygon points="59.902,87.6 57.737,87.6 57.737,85.67 59.902,85.67 59.902,87.6 "/>
<polygon points="68.7,87.6 66.534,87.6 66.534,85.67 68.7,85.67 68.7,87.6 "/>
<path d="M63.662,95.076c-2.472,0-4.508-0.967-5.531-2.662l1.852-1.121c0.818,1.355,2.743,1.719,4.262,1.596
	c0.465-0.035,0.979-0.18,1.341-0.377c0.563-0.303,1.171-0.832,1.415-1.227l1.844,1.137c-0.541,0.877-1.537,1.623-2.227,1.994
	c-0.633,0.342-1.437,0.572-2.208,0.633C64.157,95.066,63.908,95.076,63.662,95.076L63.662,95.076z"/>
<path d="M78.992,71.876c1.364,2.174,0.967,4.881-0.895,6.046c-1.854,1.164-4.467,0.347-5.83-1.828
	c-1.364-2.174-0.967-4.879,0.895-6.045C75.018,68.886,77.627,69.702,78.992,71.876z"/>
<path d="M131.32,140.85H99.714v-29.332h31.606V140.85L131.32,140.85z M101.879,138.684h27.275v-25h-27.275V138.684L101.879,138.684z
	"/>
<path d="M154.779,148.303H76.257v-9.619h78.522V148.303L154.779,148.303z M78.423,146.137h74.19v-5.287h-74.19V146.137
	L78.423,146.137z"/>
</svg>
