<?xml version="1.0" encoding="utf-8"?>
<!-- Generator: Adobe Illustrator 14.0.0, SVG Export Plug-In . SVG Version: 6.00 Build 43363)  -->
<!DOCTYPE svg PUBLIC "-//W3C//DTD SVG 1.1//EN" "http://www.w3.org/Graphics/SVG/1.1/DTD/svg11.dtd">
<svg version="1.1" id="Layer_1" xmlns="http://www.w3.org/2000/svg" xmlns:xlink="http://www.w3.org/1999/xlink" x="0px" y="0px"
	 width="226.77px" height="153.07px" viewBox="0 0 226.77 153.07" enable-background="new 0 0 226.77 153.07" xml:space="preserve">
<g>
	<rect x="30.6" y="7.305" fill="#FFFFFF" width="170.439" height="103.678"/>
	<path d="M202.127,112.07H29.512V6.217h172.615V112.07L202.127,112.07z M31.688,109.895h168.264V8.393H31.688V109.895
		L31.688,109.895z"/>
</g>
<g>
	<rect x="37.962" y="13.658" fill="#FFFFFF" width="155.717" height="90.969"/>
	<path d="M194.767,105.715H36.874V12.57h157.893V105.715L194.767,105.715z M39.05,103.539h153.541V14.746H39.05V103.539
		L39.05,103.539z"/>
</g>
<path d="M130.712,139.365H98.955v-29.471h31.757V139.365L130.712,139.365z M101.131,137.189h27.405V112.07h-27.405V137.189
	L101.131,137.189z"/>
<path d="M154.282,146.854H75.387v-9.664h78.896V146.854L154.282,146.854z M77.563,144.678h74.544v-5.313H77.563V144.678
	L77.563,144.678z"/>
<g>
	<rect x="52.449" y="25.99" fill="#FFFFFF" width="126.74" height="67.329"/>
	<path d="M180.277,94.407H51.361V24.902h128.916V94.407L180.277,94.407z M53.537,92.231h124.564V27.078H53.537V92.231L53.537,92.231
		z"/>
</g>
<rect x="52.449" y="25.99" width="126.74" height="5.076"/>
<path d="M119.298,66.242H58.101V35.51h61.197V66.242L119.298,66.242z M60.276,64.066h56.846V37.686H60.276V64.066L60.276,64.066z"/>
<path d="M174.03,66.242h-49.499V35.51h49.499V66.242L174.03,66.242z M126.707,64.066h45.147V37.686h-45.147V64.066L126.707,64.066z"
	/>
<circle fill="#FFFFFF" cx="163.967" cy="28.098" r="1.36"/>
<circle fill="#FFFFFF" cx="169.135" cy="28.098" r="1.36"/>
<circle fill="#FFFFFF" cx="174.302" cy="28.098" r="1.36"/>
<polygon points="67.62,61.319 65.444,61.319 65.444,45.392 67.62,45.392 67.62,61.319 "/>
<polygon points="71.791,61.319 69.615,61.319 69.615,49.652 71.791,49.652 71.791,61.319 "/>
<polygon points="76.052,61.319 73.876,61.319 73.876,47.477 76.052,47.477 76.052,61.319 "/>
<polygon points="80.131,61.319 77.955,61.319 77.955,50.876 80.131,50.876 80.131,61.319 "/>
<polygon points="84.278,61.319 82.103,61.319 82.103,45.845 84.278,45.845 84.278,61.319 "/>
<polygon points="88.563,61.319 86.387,61.319 86.387,48.655 88.563,48.655 88.563,61.319 "/>
<path d="M148.94,54.443h-18.63V41.221h18.63V54.443L148.94,54.443z M132.486,52.268h14.278v-8.871h-14.278V52.268L132.486,52.268z"
	/>
<polygon points="163.56,43.736 153.7,43.736 153.7,41.561 163.56,41.561 163.56,43.736 "/>
<polygon points="161.452,48.904 153.7,48.904 153.7,46.729 161.452,46.729 161.452,48.904 "/>
<polygon points="159.004,54.412 153.7,54.412 153.7,52.236 159.004,52.236 159.004,54.412 "/>
<polygon points="172.942,73.497 59.188,73.497 59.188,71.321 172.942,71.321 172.942,73.497 "/>
<polygon points="172.942,79.48 59.188,79.48 59.188,77.305 172.942,77.305 172.942,79.48 "/>
</svg>
