<?xml version="1.0" encoding="utf-8"?>
<!-- Generator: Adobe Illustrator 14.0.0, SVG Export Plug-In . SVG Version: 6.00 Build 43363)  -->
<!DOCTYPE svg PUBLIC "-//W3C//DTD SVG 1.1//EN" "http://www.w3.org/Graphics/SVG/1.1/DTD/svg11.dtd">
<svg version="1.1" id="Layer_1" xmlns="http://www.w3.org/2000/svg" xmlns:xlink="http://www.w3.org/1999/xlink" x="0px" y="0px"
	 width="226.77px" height="153.07px" viewBox="0 0 226.77 153.07" enable-background="new 0 0 226.77 153.07" xml:space="preserve">
<path fill="#FFFFFF" stroke="#000000" d="M81.525,89.34"/>
<path fill="#191919" d="M91.082,44.338c0,0-5.156-2.211-3.927,3.435c0,0,1.718,2.457,2.945,3.193l-1.075,5.646L75.123,55.63
	c0,0-14.484-26.024-2.945-28.724c0,0,5.359-2.209,7.222,0c0,0-1.574-7.854,4.563-6.873c0,0,8.348-0.244,11.539,4.418
	c0,0,7.856,2.211,7.12-2.209c0,0,8.1,10.556-9.086,12.028L91.082,44.338z"/>
<path fill="#191919" d="M88.729,66.779l-15.242-0.011l0.8-11.197l1.673,0.12l-0.673,9.403l11.767,0.008v-5.672l1.212,0.606
	c0.813,0.408,3.201,0.222,4.727-0.047c8.073-4.943,4.296-26.081,4.257-26.294l1.649-0.303c0.169,0.925,4.056,22.729-5.185,28.118
	l-0.269,0.099c-0.558,0.104-2.938,0.518-4.716,0.267V66.779L88.729,66.779z"/>
<polyline fill="none" stroke="#191919" points="102.376,98.798 102.376,147.938 90.837,147.938 "/>
<polygon fill="#191919" points="89.917,148.776 77.562,110.723 23.512,110.723 36.025,147.668 34.438,148.206 21.175,109.047 
	78.779,109.047 91.512,148.26 89.917,148.776 "/>
<polygon fill="#191919" points="146.017,116.426 143.562,103.659 145.208,103.344 147.663,116.109 146.017,116.426 "/>
<polygon fill="#191919" points="162.064,116.426 159.609,103.659 161.256,103.344 163.711,116.109 162.064,116.426 "/>
<path fill="none" stroke="#191919" d="M87.892,65.94c0,0,24.304-1.93,33.511,50.361v2.778"/>
<path fill="#191919" d="M146.021,124.184l-0.383-1.631l8.244-1.938c-2.713-3.683-10.198-0.787-10.28-0.755l-0.615-1.56
	c0.417-0.162,10.198-3.936,12.941,2.55l0.387,0.915L146.021,124.184L146.021,124.184z"/>
<path fill="#191919" d="M194.641,104.254h-85.933l12.013-57.65h84.793L194.641,104.254L194.641,104.254z M110.77,102.578h82.482
	l10.238-54.299h-81.407L110.77,102.578L110.77,102.578z"/>
<polygon fill="#191919" points="170.388,130.04 132.276,130.04 132.276,128.364 169.877,128.364 180.063,121.533 155.173,122.015 
	155.14,120.339 185.734,119.748 170.388,130.04 "/>
<path fill="#191919" d="M191.12,101.063h-77.651l10.871-51.268h76.619L191.12,101.063L191.12,101.063z M115.537,99.387h74.198
	l9.194-47.917h-73.232L115.537,99.387L115.537,99.387z"/>
<g>
	<path fill="#191919" d="M40.019,109.33c0-10.803,3.928-28.012,11.785-36.112c9.082-9.328,19.641-7.855,31.669-7.611
		c16.203,0.247,24.061,11.541,30.195,25.042c2.702,5.891,6.14,13.065,7.366,19.693c0.247,1.72,1.04,5.217,2.27,6.444
		c1.473,1.229,5.587,1.358,7.549,1.358c2.946,0,17.187-1.72,13.748,4.91c-2.7,5.154-21.357,6.873-26.758,7.856
		c-12.52,2.452-12.675-10.229-15.13-18.819c-0.736,14.484,0.645,18.572,0.152,32.811c-0.244,3.928-0.957,3.934-5.154,4.174
		c-2.334,0.134-5.401,1.344-6.874-1.603c-2.702-5.155-4.59-14.12-6.801-19.521c-1.474-4.418-3.346-9.753-4.62-14.232
		c-0.946-3.316-1.683-4.238-3.8-4.146c-8.806,0.383-24.306,0.311-34.124,0.311L40.019,109.33z"/>
</g>
<g>
	<line fill="#FFFFFF" x1="160.433" y1="50.632" x2="151.23" y2="100.225"/>
	<polygon points="152.054,100.378 150.407,100.072 159.609,50.479 161.256,50.785 152.054,100.378 	"/>
</g>
<g>
	<polygon fill="#FFFFFF" points="129.503,55.342 137.727,55.342 135.396,64 127.539,64 	"/>
	<path d="M136.037,64.837h-9.547l2.343-10.333h9.986L136.037,64.837L136.037,64.837z M128.588,63.162h6.166l1.879-6.981h-6.461
		L128.588,63.162L128.588,63.162z"/>
</g>
<g>
	<polygon fill="#FFFFFF" points="183.451,69.364 191.673,69.364 189.343,78.021 181.486,78.021 	"/>
	<path d="M189.984,78.859h-9.547l2.345-10.333h9.984L189.984,78.859L189.984,78.859z M182.535,77.183h6.166l1.879-6.981h-6.459
		L182.535,77.183L182.535,77.183z"/>
</g>
<g>
	<polygon fill="#FFFFFF" points="141.256,85.539 149.478,85.539 147.147,94.195 139.291,94.195 	"/>
	<path d="M147.789,95.033h-9.548l2.346-10.332h9.984L147.789,95.033L147.789,95.033z M140.34,93.357h6.166l1.879-6.98h-6.459
		L140.34,93.357L140.34,93.357z"/>
</g>
<g>
	<line fill="#FFFFFF" x1="142.637" y1="55.342" x2="150.613" y2="55.342"/>
	<polygon points="150.613,56.18 142.637,56.18 142.637,54.504 150.613,54.504 150.613,56.18 	"/>
</g>
<g>
	<line fill="#FFFFFF" x1="141.776" y1="58.288" x2="148.036" y2="58.288"/>
	<polygon points="148.036,59.126 141.776,59.126 141.776,57.45 148.036,57.45 148.036,59.126 	"/>
</g>
<g>
	<line fill="#FFFFFF" x1="140.919" y1="61.479" x2="151.23" y2="61.479"/>
	<polygon points="151.23,62.317 140.919,62.317 140.919,60.641 151.23,60.641 151.23,62.317 	"/>
</g>
<g>
	<line fill="#FFFFFF" x1="128.287" y1="85.539" x2="136.265" y2="85.539"/>
	<polygon points="136.265,86.377 128.287,86.377 128.287,84.701 136.265,84.701 136.265,86.377 	"/>
</g>
<g>
	<line fill="#FFFFFF" x1="128.644" y1="88.486" x2="134.903" y2="88.486"/>
	<polygon points="134.903,89.324 128.644,89.324 128.644,87.648 134.903,87.648 134.903,89.324 	"/>
</g>
<g>
	<line fill="#FFFFFF" x1="124.104" y1="91.676" x2="134.414" y2="91.676"/>
	<polygon points="134.414,92.514 124.104,92.514 124.104,90.838 134.414,90.838 134.414,92.514 	"/>
</g>
<g>
	<line fill="#FFFFFF" x1="126.557" y1="68.477" x2="149.758" y2="68.477"/>
	<polygon points="149.758,69.314 126.557,69.314 126.557,67.639 149.758,67.639 149.758,69.314 	"/>
</g>
<g>
	<line fill="#FFFFFF" x1="125.697" y1="71.789" x2="144.907" y2="71.789"/>
	<polygon points="144.907,72.627 125.697,72.627 125.697,70.951 144.907,70.951 144.907,72.627 	"/>
</g>
<g>
	<line fill="#FFFFFF" x1="124.716" y1="75.429" x2="139.567" y2="75.429"/>
	<polygon points="139.567,76.267 124.716,76.267 124.716,74.591 139.567,74.591 139.567,76.267 	"/>
</g>
<g>
	<line fill="#FFFFFF" x1="162.934" y1="70.38" x2="178.969" y2="70.38"/>
	<polygon points="178.969,71.218 162.934,71.218 162.934,69.542 178.969,69.542 178.969,71.218 	"/>
</g>
<g>
	<line fill="#FFFFFF" x1="162.341" y1="73.692" x2="175.617" y2="73.692"/>
	<polygon points="175.617,74.53 162.341,74.53 162.341,72.854 175.617,72.854 175.617,74.53 	"/>
</g>
<g>
	<line fill="#FFFFFF" x1="161.661" y1="77.332" x2="171.928" y2="77.332"/>
	<polygon points="171.928,78.17 161.661,78.17 161.661,76.494 171.928,76.494 171.928,78.17 	"/>
</g>
<path fill="#FFFFFF" stroke="#000000" d="M110.992,5.607c0,0,1.072,7.541-4.374,7.96c0,0,6.794-1.118,8.425,5.446
	c0,0-2.039-6.006,3.356-9.078C118.399,9.936,112.992,11.054,110.992,5.607z"/>
</svg>
