<?xml version="1.0" encoding="utf-8"?>
<!-- Generator: Adobe Illustrator 14.0.0, SVG Export Plug-In . SVG Version: 6.00 Build 43363)  -->
<!DOCTYPE svg PUBLIC "-//W3C//DTD SVG 1.1//EN" "http://www.w3.org/Graphics/SVG/1.1/DTD/svg11.dtd">
<svg version="1.1" id="Layer_1" xmlns="http://www.w3.org/2000/svg" xmlns:xlink="http://www.w3.org/1999/xlink" x="0px" y="0px"
	 width="457px" height="351px" viewBox="0 0 457 351" enable-background="new 0 0 457 351" xml:space="preserve">
<g>
	<path fill="#FFFFFF" d="M447.574,256.028c0,7.826-6.346,14.172-14.174,14.172H25.937c-7.828,0-14.174-6.346-14.174-14.172V22.211
		c0-7.828,6.346-14.173,14.174-14.173H433.4c7.828,0,14.174,6.346,14.174,14.173V256.028z"/>
	<path d="M433.4,270.7H25.937c-8.091,0-14.674-6.582-14.674-14.672V22.211c0-8.091,6.583-14.673,14.674-14.673H433.4
		c8.091,0,14.674,6.583,14.674,14.673v233.817C448.074,264.118,441.491,270.7,433.4,270.7L433.4,270.7z M25.937,8.538
		c-7.54,0-13.674,6.134-13.674,13.673v233.817c0,7.539,6.134,13.672,13.674,13.672H433.4c7.54,0,13.674-6.133,13.674-13.672V22.211
		c0-7.54-6.134-13.673-13.674-13.673H25.937L25.937,8.538z"/>
</g>
<g>
	<path fill="#FFFFFF" d="M436.117,231.843c0,3.172-2.574,5.744-5.746,5.744H28.937c-3.174,0-5.746-2.572-5.746-5.744V25.572
		c0-3.174,2.572-5.747,5.746-5.747h401.435c3.172,0,5.746,2.573,5.746,5.747V231.843z"/>
	<path d="M430.371,238.087H28.937c-3.444,0-6.246-2.801-6.246-6.244V25.572c0-3.444,2.802-6.247,6.246-6.247h401.435
		c3.444,0,6.246,2.802,6.246,6.247v206.271C436.617,235.286,433.815,238.087,430.371,238.087L430.371,238.087z M28.937,20.325
		c-2.893,0-5.246,2.354-5.246,5.247v206.271c0,2.892,2.354,5.244,5.246,5.244h401.435c2.893,0,5.246-2.353,5.246-5.244V25.572
		c0-2.893-2.354-5.247-5.246-5.247H28.937L28.937,20.325z"/>
</g>
<g>
	<path fill="#FFFFFF" d="M193.376,270.284c-0.759,2.078-1.354,4.219-2.049,6.318c-3.225,9.734-6.467,19.469-9.612,29.229
		c-1.616,5.012-3.085,10.063-4.894,15.01c-0.859,2.354-1.705,4.707-2.426,7.107c-0.907,3.029-2.825,7.275-2.749,10.42
		c0.073,3.031,3.108,6.494,6.396,6.494c0.084,0,51.627,0,51.627,0h0.244c0,0,51.542,0,51.626,0c3.289,0,6.324-3.463,6.396-6.494
		c0.076-3.145-1.842-7.391-2.75-10.42c-0.719-2.4-1.564-4.754-2.426-7.107c-1.807-4.947-3.277-9.998-4.893-15.01
		c-3.146-9.76-6.389-19.494-9.611-29.229c-0.695-2.1-1.291-4.24-2.049-6.318H193.376z"/>
	<path d="M281.539,345.362H178.042c-3.726,0-6.819-3.819-6.896-6.982c-0.058-2.397,0.979-5.354,1.894-7.961
		c0.326-0.928,0.637-1.813,0.876-2.614c0.728-2.425,1.567-4.759,2.435-7.136c1.262-3.451,2.378-7.018,3.457-10.467
		c0.472-1.509,0.945-3.019,1.43-4.524c2.696-8.363,5.508-16.846,8.227-25.049l1.387-4.184c0.265-0.799,0.514-1.604,0.764-2.408
		c0.401-1.292,0.816-2.628,1.29-3.925l0.12-0.328h73.531l0.12,0.329c0.472,1.295,0.887,2.63,1.288,3.921
		c0.25,0.806,0.501,1.611,0.766,2.411l1.528,4.612c2.672,8.063,5.435,16.399,8.085,24.62c0.482,1.497,0.952,2.998,1.422,4.499
		c1.082,3.458,2.201,7.033,3.464,10.492c0.831,2.271,1.703,4.691,2.435,7.136c0.24,0.799,0.55,1.684,0.875,2.61
		c0.916,2.609,1.954,5.565,1.896,7.965C288.36,341.543,285.267,345.362,281.539,345.362L281.539,345.362z M193.727,270.784
		c-0.417,1.171-0.792,2.379-1.155,3.55c-0.252,0.811-0.503,1.621-0.77,2.426l-1.387,4.184c-2.719,8.201-5.53,16.682-8.224,25.041
		c-0.485,1.503-0.957,3.01-1.428,4.517c-1.083,3.46-2.203,7.038-3.472,10.512c-0.863,2.361-1.696,4.681-2.417,7.079
		c-0.244,0.813-0.56,1.715-0.891,2.658c-0.887,2.526-1.891,5.391-1.837,7.606c0.065,2.703,2.798,6.006,5.896,6.006h103.497
		c3.099,0,5.832-3.303,5.896-6.006c0.054-2.217-0.952-5.082-1.839-7.61c-0.331-0.942-0.646-1.842-0.89-2.654
		c-0.724-2.419-1.591-4.823-2.417-7.079c-1.271-3.481-2.394-7.068-3.479-10.537c-0.469-1.498-0.938-2.996-1.419-4.491
		c-2.649-8.217-5.411-16.552-8.082-24.612l-1.528-4.612c-0.267-0.806-0.519-1.617-0.771-2.429c-0.363-1.17-0.738-2.376-1.154-3.547
		H193.727L193.727,270.784z"/>
</g>
<line fill="#FFFFFF" stroke="#000000" x1="161.376" y1="19.825" x2="161.376" y2="237.587"/>
<line fill="#FFFFFF" stroke="#000000" x1="300.18" y1="19.825" x2="300.18" y2="237.587"/>
<line fill="#FFFFFF" stroke="#000000" x1="23.19" y1="128.706" x2="436.117" y2="128.706"/>
<path fill="#FFFFFF" stroke="#000000" d="M345.887,196.941"/>
<path fill="#191919" d="M350.709,181.556h-10.205l0.538-7.536l0.998,0.071l-0.462,6.464h8.131v-3.809l0.724,0.362
	c0.602,0.301,2.282,0.148,3.264-0.028c5.535-3.369,2.96-17.783,2.933-17.929l0.984-0.181c0.114,0.626,2.745,15.382-3.486,19.018
	l-0.16,0.059c-0.238,0.045-2.009,0.362-3.258,0.167V181.556L350.709,181.556z"/>
<polyline fill="none" stroke="#191919" points="360.043,203.361 360.043,236.724 352.209,236.724 "/>
<polyline fill="none" stroke="#191919" points="314.459,236.724 305.709,210.889 343.609,210.889 352.125,237.118 "/>
<path fill="none" d="M360.043,236.724"/>
<polygon fill="#191919" points="389.737,215.318 388.071,206.649 389.054,206.46 390.72,215.129 389.737,215.318 "/>
<polygon fill="#191919" points="400.632,215.318 398.966,206.649 399.948,206.46 401.614,215.129 400.632,215.318 "/>
<path fill="none" stroke="#191919" d="M350.209,181.056c0,0,16.5-1.31,22.75,34.191v1.885"/>
<path fill="#191919" d="M389.657,220.53l-0.229-0.973l5.697-1.34c-1.82-2.672-7.065-0.643-7.12-0.621l-0.367-0.93
	c0.28-0.11,6.862-2.648,8.697,1.694l0.23,0.546L389.657,220.53L389.657,220.53z"/>
<path fill="#191919" d="M422.623,206.996h-58.197l8.127-38.999h57.426L422.623,206.996L422.623,206.996z M365.656,205.996h56.139
	l6.977-36.999h-55.406L365.656,205.996L365.656,205.996z"/>
<polygon fill="#191919" points="406.193,224.505 380.342,224.505 380.342,223.505 405.889,223.505 413.017,218.726 395.885,219.056 
	395.865,218.056 416.401,217.659 406.193,224.505 "/>
<path fill="#191919" d="M420.233,204.83h-52.575l7.351-34.667h51.878L420.233,204.83L420.233,204.83z M368.893,203.83h50.515
	l6.269-32.667h-49.856L368.893,203.83L368.893,203.83z"/>
<path fill="#191919" d="M351.209,163.831c-0.82,0.162-1.67-0.536-2.502,0.117c-1.582,1.244-0.455,3.824,0.998,4.55l1.504,11.24
	l-17.5-4.321c0,0-3.813-24.307,12.178-24.973c0,0,1.447-0.125,2.072,0c0.234,0.047,0.943-0.35,1.174-0.419
	c0.977-0.295,1.986-0.52,3.002-0.619c2.389-0.233,5.023,1.642,6.324,3.872c1.295,2.222,0.92,5.166-0.707,7.083
	C356.166,162.227,353.525,163.374,351.209,163.831z"/>
<path fill="#191919" d="M73.298,53.789c-0.82,0.162-1.668-0.536-2.5,0.117c-1.584,1.244-0.455,3.824,0.998,4.55l1.246,25.278
	l-21.25-1.25c0,0,0.195-41.416,16.184-42.082c0,0,1.447-0.125,2.072,0c0.236,0.047,0.945-0.35,1.174-0.419
	c1.893-0.572,3.861,0.59,5.461,1.389c1.396,0.697,3.067,1.669,3.594,3.263c0.838,2.534-3.09,3.959-4.146,5.756
	C75.315,51.777,75.132,53.428,73.298,53.789z"/>
<g>
	<line fill="#FFFFFF" x1="399.457" y1="170.663" x2="393.209" y2="204.33"/>
	<polygon points="393.7,204.421 392.718,204.239 398.966,170.572 399.948,170.754 393.7,204.421 	"/>
</g>
<g>
	<polygon fill="#FFFFFF" points="378.459,173.86 384.041,173.86 382.459,179.737 377.125,179.737 	"/>
	<path d="M382.842,180.237h-6.343l1.561-6.877h6.634L382.842,180.237L382.842,180.237z M377.751,179.237h4.325l1.313-4.877h-4.53
		L377.751,179.237L377.751,179.237z"/>
</g>
<g>
	<polygon fill="#FFFFFF" points="415.084,183.38 420.666,183.38 419.084,189.257 413.75,189.257 	"/>
	<path d="M419.467,189.757h-6.343l1.561-6.877h6.634L419.467,189.757L419.467,189.757z M414.376,188.757h4.325l1.313-4.877h-4.53
		L414.376,188.757L414.376,188.757z"/>
</g>
<g>
	<polygon fill="#FFFFFF" points="386.438,194.361 392.02,194.361 390.438,200.238 385.104,200.238 	"/>
	<path d="M390.82,200.738h-6.343l1.561-6.877h6.634L390.82,200.738L390.82,200.738z M385.729,199.738h4.325l1.313-4.877h-4.53
		L385.729,199.738L385.729,199.738z"/>
</g>
<g>
	<line fill="#FFFFFF" x1="387.375" y1="173.86" x2="392.791" y2="173.86"/>
	<polygon points="392.791,174.36 387.375,174.36 387.375,173.36 392.791,173.36 392.791,174.36 	"/>
</g>
<g>
	<line fill="#FFFFFF" x1="386.791" y1="175.86" x2="391.041" y2="175.86"/>
	<polygon points="391.041,176.36 386.791,176.36 386.791,175.36 391.041,175.36 391.041,176.36 	"/>
</g>
<g>
	<line fill="#FFFFFF" x1="386.209" y1="178.027" x2="393.209" y2="178.027"/>
	<polygon points="393.209,178.527 386.209,178.527 386.209,177.527 393.209,177.527 393.209,178.527 	"/>
</g>
<g>
	<line fill="#FFFFFF" x1="377.633" y1="194.361" x2="383.049" y2="194.361"/>
	<polygon points="383.049,194.861 377.633,194.861 377.633,193.861 383.049,193.861 383.049,194.861 	"/>
</g>
<g>
	<line fill="#FFFFFF" x1="377.875" y1="196.361" x2="382.125" y2="196.361"/>
	<polygon points="382.125,196.861 377.875,196.861 377.875,195.861 382.125,195.861 382.125,196.861 	"/>
</g>
<g>
	<line fill="#FFFFFF" x1="374.793" y1="198.527" x2="381.793" y2="198.527"/>
	<polygon points="381.793,199.027 374.793,199.027 374.793,198.027 381.793,198.027 381.793,199.027 	"/>
</g>
<g>
	<line fill="#FFFFFF" x1="376.459" y1="182.777" x2="392.209" y2="182.777"/>
	<polygon points="392.209,183.277 376.459,183.277 376.459,182.277 392.209,182.277 392.209,183.277 	"/>
</g>
<g>
	<line fill="#FFFFFF" x1="375.875" y1="185.026" x2="388.916" y2="185.026"/>
	<polygon points="388.916,185.526 375.875,185.526 375.875,184.526 388.916,184.526 388.916,185.526 	"/>
</g>
<g>
	<line fill="#FFFFFF" x1="375.209" y1="187.497" x2="385.291" y2="187.497"/>
	<polygon points="385.291,187.997 375.209,187.997 375.209,186.997 385.291,186.997 385.291,187.997 	"/>
</g>
<g>
	<line fill="#FFFFFF" x1="401.154" y1="184.069" x2="412.041" y2="184.069"/>
	<polygon points="412.041,184.569 401.154,184.569 401.154,183.569 412.041,183.569 412.041,184.569 	"/>
</g>
<g>
	<line fill="#FFFFFF" x1="400.752" y1="186.318" x2="409.766" y2="186.318"/>
	<polygon points="409.766,186.818 400.752,186.818 400.752,185.818 409.766,185.818 409.766,186.818 	"/>
</g>
<g>
	<line fill="#FFFFFF" x1="400.291" y1="188.789" x2="407.26" y2="188.789"/>
	<polygon points="407.26,189.289 400.291,189.289 400.291,188.289 407.26,188.289 407.26,189.289 	"/>
</g>
<path fill="#FFFFFF" stroke="#000000" d="M345.887,88.06"/>
<path fill="#191919" d="M352.375,57.508c0,0-3.5-1.5-2.666,2.333c0,0,1.166,1.667,2,2.167l-0.73,3.833l-9.438-0.667
	c0,0-9.834-17.667-2-19.5c0,0,3.639-1.5,4.902,0c0,0-1.068-5.332,3.098-4.666c0,0,5.668-0.166,7.834,3c0,0,5.334,1.5,4.834-1.5
	c0,0,5.498,7.166-6.168,8.166L352.375,57.508z"/>
<path fill="#191919" d="M350.709,72.675l-10.205-0.007l0.538-7.529l0.998,0.071l-0.462,6.458l8.131,0.005v-3.809l0.724,0.362
	c0.602,0.301,2.282,0.147,3.264-0.028c5.535-3.369,2.96-17.783,2.933-17.929l0.984-0.181c0.114,0.626,2.745,15.382-3.486,19.018
	l-0.16,0.059c-0.238,0.045-2.009,0.363-3.258,0.167V72.675L350.709,72.675z"/>
<polyline fill="none" stroke="#191919" points="360.043,94.481 360.043,127.841 352.209,127.841 "/>
<polygon fill="#191919" points="351.649,128.39 343.246,102.508 306.406,102.508 314.933,127.681 313.985,128.002 305.012,101.508 
	343.973,101.508 352.601,128.082 351.649,128.39 "/>
<path fill="none" d="M360.043,127.841"/>
<polygon fill="#191919" points="389.737,106.436 388.071,97.769 389.054,97.58 390.72,106.247 389.737,106.436 "/>
<polygon fill="#191919" points="400.632,106.436 398.966,97.769 399.948,97.58 401.614,106.247 400.632,106.436 "/>
<path fill="none" stroke="#191919" d="M350.209,72.174c0,0,16.5-1.31,22.75,34.19v1.886"/>
<path fill="#191919" d="M389.657,111.648l-0.229-0.974l5.697-1.338c-1.819-2.669-7.065-0.643-7.12-0.621l-0.367-0.931
	c0.279-0.11,6.862-2.647,8.697,1.694l0.23,0.546L389.657,111.648L389.657,111.648z"/>
<path fill="#191919" d="M422.623,98.116h-58.197l8.127-39h57.426L422.623,98.116L422.623,98.116z M365.656,97.116h56.139l6.977-37
	h-55.406L365.656,97.116L365.656,97.116z"/>
<polygon fill="#191919" points="406.193,115.623 380.342,115.623 380.342,114.623 405.889,114.623 413.017,109.843 395.885,110.174 
	395.865,109.174 416.401,108.777 406.193,115.623 "/>
<path fill="#191919" d="M420.233,95.95h-52.575l7.351-34.668h51.878L420.233,95.95L420.233,95.95z M368.893,94.95h50.515
	l6.269-32.668h-49.856L368.893,94.95L368.893,94.95z"/>
<g>
	<path fill="#191919" d="M317.709,101.631c0-7.333,2.666-19.016,8-24.516c6.166-6.333,13.334-5.333,21.5-5.167
		c11,0.167,16.334,7.834,20.5,17c1.834,4,4.168,8.871,5,13.371c0.168,1.167,0.707,3.542,1.541,4.375
		c1,0.834,3.793,0.921,5.125,0.921c2,0,11.668-1.167,9.334,3.333c-1.834,3.5-14.5,4.667-18.166,5.334
		c-8.5,1.666-8.605-6.943-10.271-12.776c-0.5,9.833,0.438,12.609,0.104,22.276c-0.166,2.666-0.65,2.669-3.5,2.833
		c-1.584,0.091-3.666,0.912-4.666-1.088c-1.834-3.5-3.117-9.586-4.617-13.252c-1-3-2.271-6.622-3.137-9.663
		c-0.643-2.252-1.143-2.877-2.58-2.814c-5.979,0.26-16.5,0.211-23.166,0.211L317.709,101.631z"/>
</g>
<g>
	<path fill="#191919" d="M181.1,101.631c0-7.333,2.666-19.016,8-24.516c6.166-6.333,13.334-5.333,21.5-5.167
		c11,0.167,16.334,7.834,20.5,17c1.834,4,4.168,8.871,5,13.371c0.168,1.167,0.707,3.542,1.541,4.375
		c1,0.834,3.793,0.921,5.125,0.921c2,0,11.668-1.167,9.334,3.333c-1.834,3.5-14.5,4.667-18.166,5.334
		c-8.5,1.666-8.605-6.943-10.271-12.776c-0.5,9.833,0.438,12.609,0.104,22.276c-0.166,2.666-0.65,2.669-3.5,2.833
		c-1.584,0.091-3.666,0.912-4.666-1.088c-1.834-3.5-3.117-9.586-4.617-13.252c-1-3-2.271-6.622-3.137-9.663
		c-0.643-2.252-1.143-2.877-2.58-2.814c-5.979,0.26-16.5,0.211-23.166,0.211L181.1,101.631z"/>
</g>
<g>
	<path fill="#191919" d="M42.271,101.631c0-7.333,2.666-19.016,8-24.516c6.166-6.333,13.332-5.333,21.5-5.167
		c11,0.167,16.332,7.834,20.5,17c1.832,4,4.166,8.871,5,13.371c0.166,1.167,0.707,3.542,1.541,4.375
		c1,0.834,3.791,0.921,5.125,0.921c2,0,11.666-1.167,9.334,3.333c-1.834,3.5-14.5,4.667-18.168,5.334
		c-8.5,1.666-8.604-6.943-10.271-12.776c-0.5,9.833,0.439,12.609,0.105,22.276c-0.166,2.666-0.652,2.669-3.5,2.833
		c-1.584,0.091-3.668,0.912-4.668-1.088c-1.834-3.5-3.115-9.586-4.615-13.252c-1-3-2.271-6.622-3.139-9.663
		c-0.641-2.252-1.141-2.877-2.578-2.814c-5.979,0.26-16.5,0.211-23.168,0.211L42.271,101.631z"/>
</g>
<g>
	<path fill="#191919" d="M42.271,210.547c0-7.334,2.666-19.017,8-24.517c6.166-6.333,13.332-5.333,21.5-5.167
		c11,0.167,16.332,7.834,20.5,17c1.832,4,4.166,8.871,5,13.371c0.166,1.166,0.707,3.541,1.541,4.376c1,0.834,3.791,0.92,5.125,0.92
		c2,0,11.666-1.166,9.334,3.334c-1.834,3.5-14.5,4.666-18.168,5.334c-8.5,1.666-8.604-6.943-10.271-12.776
		c-0.5,9.833,0.439,12.608,0.105,22.277c-0.166,2.665-0.652,2.667-3.5,2.831c-1.584,0.092-3.668,0.912-4.668-1.088
		c-1.834-3.5-3.115-9.586-4.615-13.252c-1-3-2.271-6.621-3.139-9.663c-0.641-2.252-1.141-2.877-2.578-2.814
		c-5.979,0.26-16.5,0.211-23.168,0.211L42.271,210.547z"/>
</g>
<g>
	<path fill="#191919" d="M317.709,210.682c0-7.332,2.666-19.015,8-24.515c6.166-6.334,13.334-5.334,21.5-5.168
		c11,0.168,16.334,7.834,20.5,16.999c1.834,4,4.168,8.871,5,13.371c0.168,1.168,0.707,3.543,1.541,4.376
		c1,0.834,3.793,0.922,5.125,0.922c2,0,11.668-1.168,9.334,3.332c-1.834,3.5-14.5,4.668-18.166,5.334
		c-8.5,1.666-8.605-6.941-10.271-12.776c-0.5,9.835,0.438,12.61,0.104,22.276c-0.166,2.666-0.65,2.67-3.5,2.834
		c-1.584,0.092-3.666,0.912-4.666-1.088c-1.834-3.5-3.117-9.586-4.617-13.252c-1-3-2.271-6.623-3.137-9.665
		c-0.643-2.252-1.143-2.877-2.58-2.814c-5.979,0.26-16.5,0.211-23.166,0.211L317.709,210.682z"/>
</g>
<g>
	<line fill="#FFFFFF" x1="399.457" y1="61.782" x2="393.209" y2="95.45"/>
	<polygon points="393.7,95.541 392.718,95.358 398.966,61.69 399.948,61.873 393.7,95.541 	"/>
</g>
<g>
	<polygon fill="#FFFFFF" points="378.459,64.979 384.041,64.979 382.459,70.856 377.125,70.856 	"/>
	<path d="M382.842,71.356h-6.343l1.561-6.877h6.634L382.842,71.356L382.842,71.356z M377.751,70.356h4.325l1.313-4.877h-4.53
		L377.751,70.356L377.751,70.356z"/>
</g>
<g>
	<polygon fill="#FFFFFF" points="415.084,74.499 420.666,74.499 419.084,80.375 413.75,80.375 	"/>
	<path d="M419.467,80.875h-6.343l1.561-6.877h6.634L419.467,80.875L419.467,80.875z M414.376,79.875h4.325l1.313-4.877h-4.53
		L414.376,79.875L414.376,79.875z"/>
</g>
<g>
	<polygon fill="#FFFFFF" points="386.438,85.48 392.02,85.48 390.438,91.357 385.104,91.357 	"/>
	<path d="M390.82,91.857h-6.343l1.561-6.877h6.634L390.82,91.857L390.82,91.857z M385.729,90.857h4.325l1.313-4.877h-4.53
		L385.729,90.857L385.729,90.857z"/>
</g>
<g>
	<line fill="#FFFFFF" x1="387.375" y1="64.979" x2="392.791" y2="64.979"/>
	<polygon points="392.791,65.479 387.375,65.479 387.375,64.479 392.791,64.479 392.791,65.479 	"/>
</g>
<g>
	<line fill="#FFFFFF" x1="386.791" y1="66.979" x2="391.041" y2="66.979"/>
	<polygon points="391.041,67.479 386.791,67.479 386.791,66.479 391.041,66.479 391.041,67.479 	"/>
</g>
<g>
	<line fill="#FFFFFF" x1="386.209" y1="69.146" x2="393.209" y2="69.146"/>
	<polygon points="393.209,69.646 386.209,69.646 386.209,68.646 393.209,68.646 393.209,69.646 	"/>
</g>
<g>
	<line fill="#FFFFFF" x1="377.633" y1="85.48" x2="383.049" y2="85.48"/>
	<polygon points="383.049,85.98 377.633,85.98 377.633,84.98 383.049,84.98 383.049,85.98 	"/>
</g>
<g>
	<line fill="#FFFFFF" x1="377.875" y1="87.48" x2="382.125" y2="87.48"/>
	<polygon points="382.125,87.98 377.875,87.98 377.875,86.98 382.125,86.98 382.125,87.98 	"/>
</g>
<g>
	<line fill="#FFFFFF" x1="374.793" y1="89.646" x2="381.793" y2="89.646"/>
	<polygon points="381.793,90.146 374.793,90.146 374.793,89.146 381.793,89.146 381.793,90.146 	"/>
</g>
<g>
	<line fill="#FFFFFF" x1="376.459" y1="73.896" x2="392.209" y2="73.896"/>
	<polygon points="392.209,74.396 376.459,74.396 376.459,73.396 392.209,73.396 392.209,74.396 	"/>
</g>
<g>
	<line fill="#FFFFFF" x1="375.875" y1="76.145" x2="388.916" y2="76.145"/>
	<polygon points="388.916,76.645 375.875,76.645 375.875,75.645 388.916,75.645 388.916,76.645 	"/>
</g>
<g>
	<line fill="#FFFFFF" x1="375.209" y1="78.616" x2="385.291" y2="78.616"/>
	<polygon points="385.291,79.116 375.209,79.116 375.209,78.116 385.291,78.116 385.291,79.116 	"/>
</g>
<g>
	<line fill="#FFFFFF" x1="401.154" y1="75.188" x2="412.041" y2="75.188"/>
	<polygon points="412.041,75.688 401.154,75.688 401.154,74.688 412.041,74.688 412.041,75.688 	"/>
</g>
<g>
	<line fill="#FFFFFF" x1="400.752" y1="77.437" x2="409.766" y2="77.437"/>
	<polygon points="409.766,77.937 400.752,77.937 400.752,76.937 409.766,76.937 409.766,77.937 	"/>
</g>
<g>
	<line fill="#FFFFFF" x1="400.291" y1="79.908" x2="407.26" y2="79.908"/>
	<polygon points="407.26,80.408 400.291,80.408 400.291,79.408 407.26,79.408 407.26,80.408 	"/>
</g>
<path fill="#FFFFFF" stroke="#000000" d="M209.448,88.06"/>
<path fill="#191919" d="M220.653,47.554c-0.906-1.247-2.801-2.397-4.147-3.099c-3.116-1.624-6.649-1.6-9.835-0.212
	c-0.205,0.09-0.414,0.202-0.623,0.322c-0.786-0.829-1.878-1.346-3.089-1.346c-2.394,0-4.333,2.009-4.333,4.488
	c0,1.879,1.117,3.483,2.7,4.152c-0.352,4.528,2.028,9.784,3.777,13.316l9.437,0.667l0.73-3.833c-0.833-0.5-2-2.167-2-2.167
	c-0.833-3.833,2.664-2.333,2.667-2.333c-0.734-0.161,0.872-4.052,1.144-4.508c0.338-0.571,0.762-1.056,1.24-1.478
	c0.682-0.601,1.478-1.074,2.307-1.49C221.503,49.594,221.044,48.091,220.653,47.554z"/>
<path fill="#191919" d="M214.271,72.675l-10.204-0.007l0.539-7.529l0.997,0.071l-0.461,6.458l8.13,0.005v-3.809l0.724,0.362
	c0.601,0.3,2.282,0.147,3.265-0.028c5.532-3.367,2.959-17.783,2.932-17.929l0.983-0.181c0.115,0.626,2.747,15.382-3.485,19.018
	l-0.16,0.059c-0.238,0.045-2.013,0.364-3.259,0.167V72.675L214.271,72.675z"/>
<polyline fill="none" stroke="#191919" points="223.604,94.481 223.604,127.841 215.771,127.841 "/>
<polygon fill="#191919" points="215.212,128.39 206.808,102.508 169.968,102.508 178.494,127.681 177.547,128.002 168.573,101.508 
	207.534,101.508 216.163,128.082 215.212,128.39 "/>
<path fill="none" d="M223.604,127.841"/>
<polygon fill="#191919" points="253.298,106.436 251.632,97.769 252.614,97.58 254.28,106.247 253.298,106.436 "/>
<polygon fill="#191919" points="264.194,106.436 262.528,97.769 263.511,97.58 265.177,106.247 264.194,106.436 "/>
<path fill="#191919" d="M237.02,108.25h-1v-1.886c-6.091-34.558-22.043-33.711-22.209-33.692l-0.079-0.997
	c0.688-0.056,17.025-0.934,23.281,34.602L237.02,108.25L237.02,108.25z"/>
<path fill="#191919" d="M253.218,111.648l-0.229-0.974l5.699-1.338c-1.818-2.669-7.064-0.643-7.12-0.621l-0.367-0.931
	c0.279-0.11,6.862-2.647,8.697,1.694l0.231,0.546L253.218,111.648L253.218,111.648z"/>
<path fill="#191919" d="M286.184,98.116h-58.195l8.124-39h57.428L286.184,98.116L286.184,98.116z M229.218,97.116h56.137l6.979-37
	h-55.408L229.218,97.116L229.218,97.116z"/>
<polygon fill="#191919" points="269.756,115.623 243.902,115.623 243.902,114.623 269.451,114.623 276.578,109.843 259.447,110.174 
	259.428,109.174 279.961,108.777 269.756,115.623 "/>
<path fill="#191919" d="M283.794,95.95h-52.573l7.351-34.668h51.877L283.794,95.95L283.794,95.95z M232.455,94.95h50.513
	l6.271-32.668h-49.857L232.455,94.95L232.455,94.95z"/>
<g>
	<line fill="#FFFFFF" x1="263.02" y1="61.782" x2="256.77" y2="95.45"/>
	<polygon points="257.261,95.541 256.278,95.358 262.528,61.69 263.511,61.873 257.261,95.541 	"/>
</g>
<g>
	<polygon fill="#FFFFFF" points="242.02,64.979 247.604,64.979 246.02,70.856 240.688,70.856 	"/>
	<path d="M246.403,71.356h-6.341l1.559-6.877h6.636L246.403,71.356L246.403,71.356z M241.313,70.356h4.323l1.314-4.877h-4.532
		L241.313,70.356L241.313,70.356z"/>
</g>
<g>
	<polygon fill="#FFFFFF" points="278.645,74.499 284.229,74.499 282.645,80.375 277.313,80.375 	"/>
	<path d="M283.028,80.875h-6.341l1.559-6.877h6.636L283.028,80.875L283.028,80.875z M277.938,79.875h4.323l1.314-4.877h-4.532
		L277.938,79.875L277.938,79.875z"/>
</g>
<g>
	<polygon fill="#FFFFFF" points="249.998,85.48 255.582,85.48 253.998,91.357 248.666,91.357 	"/>
	<path d="M254.381,91.857h-6.341l1.559-6.877h6.636L254.381,91.857L254.381,91.857z M249.292,90.857h4.323l1.314-4.877h-4.532
		L249.292,90.857L249.292,90.857z"/>
</g>
<g>
	<line fill="#FFFFFF" x1="250.938" y1="64.979" x2="256.354" y2="64.979"/>
	<polygon points="256.354,65.479 250.938,65.479 250.938,64.479 256.354,64.479 256.354,65.479 	"/>
</g>
<g>
	<line fill="#FFFFFF" x1="250.354" y1="66.979" x2="254.604" y2="66.979"/>
	<polygon points="254.604,67.479 250.354,67.479 250.354,66.479 254.604,66.479 254.604,67.479 	"/>
</g>
<g>
	<line fill="#FFFFFF" x1="249.77" y1="69.146" x2="256.77" y2="69.146"/>
	<polygon points="256.77,69.646 249.77,69.646 249.77,68.646 256.77,68.646 256.77,69.646 	"/>
</g>
<g>
	<line fill="#FFFFFF" x1="241.195" y1="85.48" x2="246.611" y2="85.48"/>
	<polygon points="246.611,85.98 241.195,85.98 241.195,84.98 246.611,84.98 246.611,85.98 	"/>
</g>
<g>
	<line fill="#FFFFFF" x1="241.438" y1="87.48" x2="245.688" y2="87.48"/>
	<polygon points="245.688,87.98 241.438,87.98 241.438,86.98 245.688,86.98 245.688,87.98 	"/>
</g>
<g>
	<line fill="#FFFFFF" x1="238.354" y1="89.646" x2="245.354" y2="89.646"/>
	<polygon points="245.354,90.146 238.354,90.146 238.354,89.146 245.354,89.146 245.354,90.146 	"/>
</g>
<g>
	<line fill="#FFFFFF" x1="240.02" y1="73.896" x2="255.77" y2="73.896"/>
	<polygon points="255.77,74.396 240.02,74.396 240.02,73.396 255.77,73.396 255.77,74.396 	"/>
</g>
<g>
	<line fill="#FFFFFF" x1="239.438" y1="76.145" x2="252.479" y2="76.145"/>
	<polygon points="252.479,76.645 239.438,76.645 239.438,75.645 252.479,75.645 252.479,76.645 	"/>
</g>
<g>
	<line fill="#FFFFFF" x1="238.77" y1="78.616" x2="248.854" y2="78.616"/>
	<polygon points="248.854,79.116 238.77,79.116 238.77,78.116 248.854,78.116 248.854,79.116 	"/>
</g>
<g>
	<line fill="#FFFFFF" x1="264.717" y1="75.188" x2="275.602" y2="75.188"/>
	<polygon points="275.602,75.688 264.717,75.688 264.717,74.688 275.602,74.688 275.602,75.688 	"/>
</g>
<g>
	<line fill="#FFFFFF" x1="264.313" y1="77.437" x2="273.326" y2="77.437"/>
	<polygon points="273.326,77.937 264.313,77.937 264.313,76.937 273.326,76.937 273.326,77.937 	"/>
</g>
<g>
	<line fill="#FFFFFF" x1="263.852" y1="79.908" x2="270.82" y2="79.908"/>
	<polygon points="270.82,80.408 263.852,80.408 263.852,79.408 270.82,79.408 270.82,80.408 	"/>
</g>
<path fill="#FFFFFF" stroke="#000000" d="M70.114,88.06"/>
<path fill="#191919" d="M74.937,72.732l-10.205-1.113l0.541-6.486l0.996,0.083l-0.459,5.514l8.127,0.887v-6.545l0.724,0.362
	c0.601,0.3,2.282,0.146,3.266-0.028c5.496-3.366,1.471-19.187,1.429-19.347l0.968-0.251c0.178,0.687,4.289,16.856-1.966,20.505
	l-0.16,0.059c-0.239,0.045-2.015,0.363-3.26,0.167V72.732L74.937,72.732z"/>
<path fill="none" stroke="#191919" d="M65.271,71.174c0,0-20.334-5.666-23,30.834"/>
<polyline fill="none" stroke="#191919" points="84.271,94.481 84.271,127.841 76.437,127.841 "/>
<polygon fill="#191919" points="75.879,128.39 67.474,102.508 30.634,102.508 39.16,127.681 38.213,128.002 29.239,101.508 
	68.2,101.508 76.83,128.082 75.879,128.39 "/>
<path fill="none" d="M84.271,127.841"/>
<polygon fill="#191919" points="113.965,106.436 112.299,97.769 113.281,97.58 114.947,106.247 113.965,106.436 "/>
<polygon fill="#191919" points="124.861,106.436 123.195,97.769 124.178,97.58 125.844,106.247 124.861,106.436 "/>
<path fill="#191919" d="M97.687,108.25h-1v-1.886c-6.092-34.558-22.046-33.711-22.21-33.692l-0.079-0.997
	c0.69-0.056,17.025-0.934,23.282,34.602L97.687,108.25L97.687,108.25z"/>
<path fill="#191919" d="M113.885,111.648l-0.229-0.974l5.699-1.338c-1.818-2.669-7.064-0.643-7.12-0.621l-0.367-0.931
	c0.279-0.11,6.862-2.647,8.697,1.694l0.231,0.546L113.885,111.648L113.885,111.648z"/>
<path fill="#191919" d="M146.851,98.116H88.656l8.124-39h57.428L146.851,98.116L146.851,98.116z M89.885,97.116h56.137l6.979-37
	H97.593L89.885,97.116L89.885,97.116z"/>
<polygon fill="#191919" points="130.423,115.623 104.569,115.623 104.569,114.623 130.118,114.623 137.245,109.843 120.114,110.174 
	120.095,109.174 140.628,108.777 130.423,115.623 "/>
<path fill="#191919" d="M144.461,95.95H91.888l7.351-34.668h51.877L144.461,95.95L144.461,95.95z M93.122,94.95h50.513l6.271-32.668
	h-49.857L93.122,94.95L93.122,94.95z"/>
<g>
	<line fill="#FFFFFF" x1="123.687" y1="61.782" x2="117.437" y2="95.45"/>
	<polygon points="117.928,95.541 116.945,95.358 123.195,61.69 124.178,61.873 117.928,95.541 	"/>
</g>
<g>
	<polygon fill="#FFFFFF" points="102.687,64.979 108.271,64.979 106.687,70.856 101.354,70.856 	"/>
	<path d="M107.07,71.356h-6.341l1.559-6.877h6.636L107.07,71.356L107.07,71.356z M101.98,70.356h4.323l1.314-4.877h-4.532
		L101.98,70.356L101.98,70.356z"/>
</g>
<g>
	<polygon fill="#FFFFFF" points="139.312,74.499 144.896,74.499 143.312,80.375 137.979,80.375 	"/>
	<path d="M143.695,80.875h-6.341l1.559-6.877h6.636L143.695,80.875L143.695,80.875z M138.605,79.875h4.323l1.314-4.877h-4.532
		L138.605,79.875L138.605,79.875z"/>
</g>
<g>
	<polygon fill="#FFFFFF" points="110.665,85.48 116.249,85.48 114.665,91.357 109.333,91.357 	"/>
	<path d="M115.048,91.857h-6.341l1.559-6.877h6.636L115.048,91.857L115.048,91.857z M109.959,90.857h4.323l1.314-4.877h-4.532
		L109.959,90.857L109.959,90.857z"/>
</g>
<g>
	<line fill="#FFFFFF" x1="111.604" y1="64.979" x2="117.021" y2="64.979"/>
	<polygon points="117.021,65.479 111.604,65.479 111.604,64.479 117.021,64.479 117.021,65.479 	"/>
</g>
<g>
	<line fill="#FFFFFF" x1="111.021" y1="66.979" x2="115.271" y2="66.979"/>
	<polygon points="115.271,67.479 111.021,67.479 111.021,66.479 115.271,66.479 115.271,67.479 	"/>
</g>
<g>
	<line fill="#FFFFFF" x1="110.437" y1="69.146" x2="117.437" y2="69.146"/>
	<polygon points="117.437,69.646 110.437,69.646 110.437,68.646 117.437,68.646 117.437,69.646 	"/>
</g>
<g>
	<line fill="#FFFFFF" x1="101.862" y1="85.48" x2="107.278" y2="85.48"/>
	<polygon points="107.278,85.98 101.862,85.98 101.862,84.98 107.278,84.98 107.278,85.98 	"/>
</g>
<g>
	<line fill="#FFFFFF" x1="102.104" y1="87.48" x2="106.354" y2="87.48"/>
	<polygon points="106.354,87.98 102.104,87.98 102.104,86.98 106.354,86.98 106.354,87.98 	"/>
</g>
<g>
	<line fill="#FFFFFF" x1="99.021" y1="89.646" x2="106.021" y2="89.646"/>
	<polygon points="106.021,90.146 99.021,90.146 99.021,89.146 106.021,89.146 106.021,90.146 	"/>
</g>
<g>
	<line fill="#FFFFFF" x1="100.687" y1="73.896" x2="116.437" y2="73.896"/>
	<polygon points="116.437,74.396 100.687,74.396 100.687,73.396 116.437,73.396 116.437,74.396 	"/>
</g>
<g>
	<line fill="#FFFFFF" x1="100.104" y1="76.145" x2="113.146" y2="76.145"/>
	<polygon points="113.146,76.645 100.104,76.645 100.104,75.645 113.146,75.645 113.146,76.645 	"/>
</g>
<g>
	<line fill="#FFFFFF" x1="99.437" y1="78.616" x2="109.521" y2="78.616"/>
	<polygon points="109.521,79.116 99.437,79.116 99.437,78.116 109.521,78.116 109.521,79.116 	"/>
</g>
<g>
	<line fill="#FFFFFF" x1="125.384" y1="75.188" x2="136.269" y2="75.188"/>
	<polygon points="136.269,75.688 125.384,75.688 125.384,74.688 136.269,74.688 136.269,75.688 	"/>
</g>
<g>
	<line fill="#FFFFFF" x1="124.979" y1="77.437" x2="133.993" y2="77.437"/>
	<polygon points="133.993,77.937 124.979,77.937 124.979,76.937 133.993,76.937 133.993,77.937 	"/>
</g>
<g>
	<line fill="#FFFFFF" x1="124.519" y1="79.908" x2="131.487" y2="79.908"/>
	<polygon points="131.487,80.408 124.519,80.408 124.519,79.408 131.487,79.408 131.487,80.408 	"/>
</g>
<path fill="#FFFFFF" stroke="#000000" d="M70.114,196.592"/>
<path fill="#191919" d="M81.98,158.412c-0.154,1.047-2.171,1.715-4.103,3.004l-1.273,4.625c0,0-3.5-1.5-2.668,2.333
	c0,0,1.168,1.667,2,2.167l-0.73,3.833l-9.436-0.667c0,0-9.895-16.096-1.312-18.596c0,0,4.385-5.511,11.469-3.261
	C75.928,151.85,82.443,155.271,81.98,158.412z"/>
<path fill="#191919" d="M74.937,181.229l-10.204-0.424l0.539-7.136l0.997,0.075l-0.461,6.104l8.128,0.337v-3.788l0.724,0.362
	c0.601,0.3,2.283,0.147,3.266-0.028c5.535-3.369,2.958-17.783,2.931-17.929l0.983-0.181c0.115,0.626,2.748,15.382-3.484,19.018
	l-0.16,0.059c-0.239,0.045-2.015,0.363-3.26,0.167V181.229L74.937,181.229z"/>
<polyline fill="none" stroke="#191919" points="84.271,203.014 84.271,236.374 76.437,236.374 "/>
<polygon fill="#191919" points="75.879,236.923 67.474,211.041 30.634,211.041 39.16,236.214 38.213,236.534 29.239,210.041 
	68.2,210.041 76.83,236.614 75.879,236.923 "/>
<path fill="none" d="M84.271,236.374"/>
<polygon fill="#191919" points="113.965,214.968 112.299,206.302 113.281,206.112 114.947,214.778 113.965,214.968 "/>
<polygon fill="#191919" points="124.861,214.968 123.195,206.302 124.178,206.112 125.844,214.778 124.861,214.968 "/>
<path fill="none" stroke="#191919" d="M74.437,180.707c0,0,16.5-1.311,22.75,34.189v1.888"/>
<path fill="#191919" d="M113.885,220.181l-0.229-0.973l5.699-1.338c-1.817-2.669-7.064-0.642-7.12-0.621l-0.367-0.93
	c0.279-0.111,6.861-2.647,8.697,1.694l0.231,0.546L113.885,220.181L113.885,220.181z"/>
<path fill="#191919" d="M146.851,206.648H88.656l8.124-39h57.428L146.851,206.648L146.851,206.648z M89.885,205.648h56.137l6.979-37
	H97.593L89.885,205.648L89.885,205.648z"/>
<polygon fill="#191919" points="130.423,224.155 104.569,224.155 104.569,223.155 130.118,223.155 137.244,218.376 120.114,218.708 
	120.095,217.708 140.629,217.31 130.423,224.155 "/>
<path fill="#191919" d="M144.461,204.482H91.888l7.351-34.668h51.877L144.461,204.482L144.461,204.482z M93.122,203.482h50.513
	l6.271-32.668h-49.857L93.122,203.482L93.122,203.482z"/>
<g>
	<line fill="#FFFFFF" x1="123.687" y1="170.314" x2="117.437" y2="203.982"/>
	<polygon points="117.928,204.073 116.945,203.892 123.195,170.223 124.178,170.405 117.928,204.073 	"/>
</g>
<g>
	<polygon fill="#FFFFFF" points="102.687,173.511 108.271,173.511 106.687,179.389 101.354,179.389 	"/>
	<path d="M107.07,179.889h-6.341l1.559-6.877h6.636L107.07,179.889L107.07,179.889z M101.98,178.889h4.323l1.315-4.877h-4.532
		L101.98,178.889L101.98,178.889z"/>
</g>
<g>
	<polygon fill="#FFFFFF" points="139.312,183.031 144.896,183.031 143.312,188.908 137.979,188.908 	"/>
	<path d="M143.695,189.408h-6.341l1.559-6.877h6.636L143.695,189.408L143.695,189.408z M138.605,188.408h4.323l1.314-4.877h-4.532
		L138.605,188.408L138.605,188.408z"/>
</g>
<g>
	<polygon fill="#FFFFFF" points="110.665,194.012 116.249,194.012 114.665,199.889 109.333,199.889 	"/>
	<path d="M115.048,200.389h-6.341l1.559-6.877h6.636L115.048,200.389L115.048,200.389z M109.959,199.389h4.323l1.314-4.877h-4.532
		L109.959,199.389L109.959,199.389z"/>
</g>
<g>
	<line fill="#FFFFFF" x1="111.604" y1="173.511" x2="117.021" y2="173.511"/>
	<polygon points="117.021,174.011 111.604,174.011 111.604,173.011 117.021,173.011 117.021,174.011 	"/>
</g>
<g>
	<line fill="#FFFFFF" x1="111.021" y1="175.511" x2="115.271" y2="175.511"/>
	<polygon points="115.271,176.011 111.021,176.011 111.021,175.011 115.271,175.011 115.271,176.011 	"/>
</g>
<g>
	<line fill="#FFFFFF" x1="110.437" y1="177.678" x2="117.437" y2="177.678"/>
	<polygon points="117.437,178.178 110.437,178.178 110.437,177.178 117.437,177.178 117.437,178.178 	"/>
</g>
<g>
	<line fill="#FFFFFF" x1="101.862" y1="194.012" x2="107.278" y2="194.012"/>
	<polygon points="107.278,194.512 101.862,194.512 101.862,193.512 107.278,193.512 107.278,194.512 	"/>
</g>
<g>
	<line fill="#FFFFFF" x1="102.104" y1="196.012" x2="106.354" y2="196.012"/>
	<polygon points="106.354,196.512 102.104,196.512 102.104,195.512 106.354,195.512 106.354,196.512 	"/>
</g>
<g>
	<line fill="#FFFFFF" x1="99.021" y1="198.178" x2="106.021" y2="198.178"/>
	<polygon points="106.021,198.678 99.021,198.678 99.021,197.678 106.021,197.678 106.021,198.678 	"/>
</g>
<g>
	<line fill="#FFFFFF" x1="100.687" y1="182.428" x2="116.437" y2="182.428"/>
	<polygon points="116.437,182.928 100.687,182.928 100.687,181.928 116.437,181.928 116.437,182.928 	"/>
</g>
<g>
	<line fill="#FFFFFF" x1="100.104" y1="184.678" x2="113.146" y2="184.678"/>
	<polygon points="113.146,185.178 100.104,185.178 100.104,184.178 113.146,184.178 113.146,185.178 	"/>
</g>
<g>
	<line fill="#FFFFFF" x1="99.437" y1="187.148" x2="109.521" y2="187.148"/>
	<polygon points="109.521,187.648 99.437,187.648 99.437,186.648 109.521,186.648 109.521,187.648 	"/>
</g>
<g>
	<line fill="#FFFFFF" x1="125.384" y1="183.721" x2="136.269" y2="183.721"/>
	<polygon points="136.269,184.221 125.384,184.221 125.384,183.221 136.269,183.221 136.269,184.221 	"/>
</g>
<g>
	<line fill="#FFFFFF" x1="124.979" y1="185.969" x2="133.993" y2="185.969"/>
	<polygon points="133.993,186.469 124.979,186.469 124.979,185.469 133.993,185.469 133.993,186.469 	"/>
</g>
<g>
	<line fill="#FFFFFF" x1="124.519" y1="188.439" x2="131.487" y2="188.439"/>
	<polygon points="131.487,188.939 124.519,188.939 124.519,187.939 131.487,187.939 131.487,188.939 	"/>
</g>
<path fill="#FFFFFF" stroke="#000000" d="M167.398,180.965"/>
<path fill="none" d="M189.545,243.2"/>
<g>
	<path fill="#F2622B" d="M34.878,35.45v-6.631h1.402v5.47h2.693v1.161H34.878z"/>
	<path fill="#F2622B" d="M42.095,30.276c0.681,0,1.203,0.147,1.565,0.441c0.362,0.294,0.543,0.745,0.543,1.351v3.381h-0.966
		l-0.27-0.688h-0.037c-0.217,0.273-0.446,0.471-0.687,0.595c-0.242,0.124-0.573,0.186-0.994,0.186c-0.452,0-0.826-0.13-1.124-0.39
		c-0.297-0.26-0.446-0.666-0.446-1.216c0-0.539,0.189-0.935,0.566-1.189c0.378-0.254,0.944-0.396,1.7-0.427l0.882-0.028v-0.223
		c0-0.266-0.07-0.461-0.209-0.585s-0.333-0.186-0.581-0.186s-0.489,0.036-0.724,0.106c-0.235,0.071-0.471,0.16-0.706,0.265
		l-0.455-0.938c0.266-0.136,0.566-0.246,0.901-0.33S41.736,30.276,42.095,30.276z M42.829,33.1l-0.539,0.019
		c-0.446,0.012-0.755,0.093-0.929,0.241c-0.173,0.149-0.26,0.344-0.26,0.585c0,0.21,0.062,0.36,0.186,0.45
		c0.124,0.09,0.285,0.135,0.483,0.135c0.297,0,0.548-0.088,0.752-0.265c0.205-0.177,0.307-0.426,0.307-0.748V33.1z"/>
	<path fill="#F2622B" d="M48.503,30.286c0.545,0,0.981,0.147,1.31,0.441s0.492,0.766,0.492,1.416v3.307h-1.384v-2.963
		c0-0.365-0.065-0.639-0.195-0.822c-0.13-0.183-0.338-0.274-0.623-0.274c-0.421,0-0.709,0.144-0.864,0.432
		c-0.155,0.288-0.232,0.701-0.232,1.24v2.387h-1.384v-5.071h1.059l0.186,0.65h0.075c0.161-0.26,0.382-0.449,0.664-0.566
		S48.188,30.286,48.503,30.286z"/>
	<path fill="#F2622B" d="M53.815,30.286c0.7,0,1.254,0.2,1.663,0.599s0.613,0.968,0.613,1.704v0.669h-3.27
		c0.012,0.39,0.128,0.697,0.348,0.919c0.22,0.223,0.525,0.334,0.915,0.334c0.322,0,0.618-0.033,0.887-0.098
		c0.269-0.065,0.546-0.166,0.831-0.302v1.068c-0.254,0.124-0.517,0.215-0.79,0.274c-0.272,0.059-0.604,0.088-0.994,0.088
		c-0.508,0-0.957-0.094-1.347-0.283s-0.697-0.474-0.919-0.854c-0.223-0.381-0.334-0.865-0.334-1.454c0-0.588,0.101-1.08,0.302-1.477
		c0.201-0.396,0.481-0.693,0.841-0.892C52.921,30.385,53.339,30.286,53.815,30.286z M53.825,31.27c-0.272,0-0.495,0.087-0.668,0.26
		s-0.275,0.443-0.307,0.808h1.941c-0.006-0.303-0.088-0.557-0.246-0.762C54.387,31.373,54.147,31.27,53.825,31.27z"/>
</g>
<g>
	<path fill="#F2622B" d="M174.165,35.45l-0.483-1.579h-2.415l-0.483,1.579h-1.514l2.34-6.659h1.718l2.35,6.659H174.165z
		 M173.348,32.691l-0.483-1.542c-0.031-0.105-0.071-0.238-0.121-0.399c-0.05-0.161-0.099-0.325-0.148-0.492
		c-0.05-0.167-0.09-0.313-0.121-0.437c-0.031,0.124-0.073,0.277-0.125,0.46c-0.053,0.183-0.103,0.356-0.149,0.52
		s-0.082,0.28-0.107,0.348l-0.474,1.542H173.348z"/>
	<path fill="#F2622B" d="M179.236,30.286c0.068,0,0.148,0.003,0.242,0.009c0.093,0.006,0.167,0.016,0.223,0.028l-0.102,1.3
		c-0.05-0.012-0.115-0.023-0.195-0.032c-0.08-0.009-0.151-0.014-0.213-0.014c-0.235,0-0.461,0.042-0.678,0.125
		s-0.392,0.218-0.524,0.404c-0.133,0.186-0.2,0.44-0.2,0.762v2.582h-1.384v-5.071h1.049l0.205,0.854h0.065
		c0.148-0.26,0.353-0.483,0.613-0.668C178.595,30.378,178.896,30.286,179.236,30.286z"/>
	<path fill="#F2622B" d="M182.004,35.45h-1.384v-7.059h1.384V35.45z"/>
	<path fill="#F2622B" d="M185.542,30.286c0.7,0,1.254,0.2,1.663,0.599s0.613,0.968,0.613,1.704v0.669h-3.27
		c0.012,0.39,0.128,0.697,0.348,0.919c0.22,0.223,0.525,0.334,0.915,0.334c0.322,0,0.618-0.033,0.887-0.098
		c0.269-0.065,0.546-0.166,0.831-0.302v1.068c-0.254,0.124-0.517,0.215-0.79,0.274c-0.272,0.059-0.604,0.088-0.994,0.088
		c-0.508,0-0.957-0.094-1.347-0.283s-0.697-0.474-0.919-0.854c-0.223-0.381-0.334-0.865-0.334-1.454c0-0.588,0.101-1.08,0.302-1.477
		c0.201-0.396,0.481-0.693,0.841-0.892C184.647,30.385,185.065,30.286,185.542,30.286z M185.551,31.27
		c-0.272,0-0.495,0.087-0.668,0.26s-0.275,0.443-0.307,0.808h1.941c-0.006-0.303-0.088-0.557-0.246-0.762
		C186.113,31.373,185.874,31.27,185.551,31.27z"/>
	<path fill="#F2622B" d="M191.82,30.286c0.545,0,0.981,0.147,1.31,0.441s0.492,0.766,0.492,1.416v3.307h-1.384v-2.963
		c0-0.365-0.065-0.639-0.195-0.822c-0.13-0.183-0.338-0.274-0.623-0.274c-0.421,0-0.709,0.144-0.864,0.432
		c-0.155,0.288-0.232,0.701-0.232,1.24v2.387h-1.384v-5.071H190l0.186,0.65h0.075c0.161-0.26,0.382-0.449,0.664-0.566
		S191.505,30.286,191.82,30.286z"/>
	<path fill="#F2622B" d="M197.133,30.286c0.7,0,1.254,0.2,1.663,0.599s0.613,0.968,0.613,1.704v0.669h-3.27
		c0.012,0.39,0.128,0.697,0.348,0.919c0.22,0.223,0.525,0.334,0.915,0.334c0.322,0,0.618-0.033,0.887-0.098
		c0.269-0.065,0.546-0.166,0.831-0.302v1.068c-0.254,0.124-0.517,0.215-0.79,0.274c-0.272,0.059-0.604,0.088-0.994,0.088
		c-0.508,0-0.957-0.094-1.347-0.283s-0.697-0.474-0.919-0.854c-0.223-0.381-0.334-0.865-0.334-1.454c0-0.588,0.101-1.08,0.302-1.477
		c0.201-0.396,0.481-0.693,0.841-0.892C196.238,30.385,196.656,30.286,197.133,30.286z M197.142,31.27
		c-0.272,0-0.495,0.087-0.668,0.26s-0.275,0.443-0.307,0.808h1.941c-0.006-0.303-0.088-0.557-0.246-0.762
		C197.704,31.373,197.464,31.27,197.142,31.27z"/>
</g>
<g>
	<path fill="#F2622B" d="M311.038,28.818c0.904,0,1.571,0.164,2.001,0.492c0.431,0.328,0.646,0.827,0.646,1.495
		c0,0.304-0.057,0.568-0.172,0.794c-0.114,0.226-0.266,0.418-0.455,0.576s-0.392,0.287-0.608,0.385l1.95,2.889h-1.561l-1.579-2.545
		h-0.752v2.545h-1.402v-6.631H311.038z M310.936,29.97h-0.427v1.793h0.455c0.464,0,0.797-0.078,0.999-0.232s0.302-0.384,0.302-0.688
		c0-0.315-0.108-0.54-0.325-0.673C311.722,30.037,311.388,29.97,310.936,29.97z"/>
	<path fill="#F2622B" d="M319.731,32.905c0,0.842-0.221,1.492-0.664,1.951c-0.443,0.458-1.045,0.687-1.806,0.687
		c-0.471,0-0.891-0.102-1.259-0.306c-0.368-0.205-0.658-0.503-0.868-0.896c-0.211-0.393-0.316-0.872-0.316-1.435
		c0-0.842,0.22-1.489,0.659-1.941c0.44-0.452,1.043-0.678,1.812-0.678c0.477,0,0.897,0.102,1.263,0.307
		c0.366,0.204,0.653,0.501,0.864,0.892S319.731,32.348,319.731,32.905z M316.23,32.905c0,0.501,0.082,0.881,0.246,1.138
		c0.164,0.257,0.432,0.386,0.804,0.386c0.365,0,0.63-0.128,0.794-0.386c0.164-0.257,0.246-0.636,0.246-1.138
		s-0.082-0.877-0.246-1.128c-0.164-0.25-0.432-0.376-0.803-0.376c-0.366,0-0.63,0.125-0.794,0.376
		C316.312,32.027,316.23,32.403,316.23,32.905z"/>
	<path fill="#F2622B" d="M323.753,30.286c0.545,0,0.981,0.147,1.31,0.441s0.492,0.766,0.492,1.416v3.307h-1.384v-2.963
		c0-0.365-0.065-0.639-0.194-0.822c-0.131-0.183-0.338-0.274-0.623-0.274c-0.421,0-0.709,0.144-0.863,0.432
		c-0.155,0.288-0.232,0.701-0.232,1.24v2.387h-1.384v-5.071h1.059l0.186,0.65h0.075c0.16-0.26,0.382-0.449,0.664-0.566
		C323.139,30.345,323.438,30.286,323.753,30.286z"/>
	<path fill="#F2622B" d="M329.057,30.276c0.681,0,1.203,0.147,1.564,0.441c0.362,0.294,0.543,0.745,0.543,1.351v3.381h-0.965
		l-0.27-0.688h-0.037c-0.217,0.273-0.446,0.471-0.688,0.595c-0.242,0.124-0.572,0.186-0.994,0.186c-0.451,0-0.826-0.13-1.123-0.39
		c-0.298-0.26-0.446-0.666-0.446-1.216c0-0.539,0.188-0.935,0.566-1.189s0.944-0.396,1.7-0.427l0.882-0.028v-0.223
		c0-0.266-0.069-0.461-0.209-0.585s-0.333-0.186-0.581-0.186c-0.247,0-0.488,0.036-0.724,0.106c-0.235,0.071-0.471,0.16-0.706,0.265
		l-0.455-0.938c0.266-0.136,0.566-0.246,0.9-0.33C328.351,30.318,328.697,30.276,329.057,30.276z M329.79,33.1l-0.538,0.019
		c-0.446,0.012-0.756,0.093-0.93,0.241c-0.173,0.149-0.26,0.344-0.26,0.585c0,0.21,0.063,0.36,0.186,0.45
		c0.124,0.09,0.285,0.135,0.483,0.135c0.297,0,0.548-0.088,0.752-0.265c0.204-0.177,0.307-0.426,0.307-0.748V33.1z"/>
	<path fill="#F2622B" d="M333.969,35.45h-1.383v-7.059h1.383V35.45z"/>
	<path fill="#F2622B" d="M337.024,35.542c-0.563,0-1.022-0.221-1.379-0.664c-0.356-0.442-0.534-1.094-0.534-1.955
		c0-0.867,0.18-1.523,0.539-1.969c0.358-0.446,0.829-0.669,1.411-0.669c0.365,0,0.665,0.071,0.901,0.214
		c0.234,0.143,0.421,0.319,0.557,0.529h0.047c-0.019-0.099-0.041-0.243-0.064-0.432c-0.025-0.188-0.037-0.382-0.037-0.58v-1.625
		h1.383v7.059h-1.059l-0.27-0.66h-0.055c-0.137,0.211-0.32,0.389-0.549,0.534S337.39,35.542,337.024,35.542z M337.508,34.438
		c0.377,0,0.644-0.113,0.799-0.339c0.154-0.226,0.238-0.565,0.25-1.017v-0.149c0-0.489-0.076-0.865-0.227-1.128
		c-0.152-0.263-0.433-0.395-0.842-0.395c-0.303,0-0.541,0.131-0.715,0.395c-0.173,0.263-0.26,0.643-0.26,1.138
		c0,0.496,0.087,0.869,0.26,1.119C336.947,34.312,337.191,34.438,337.508,34.438z"/>
</g>
<g>
	<path fill="#F2622B" d="M34.182,146.806c-0.179,0-0.337-0.009-0.474-0.028s-0.254-0.043-0.353-0.074v-1.17
		c0.099,0.024,0.203,0.046,0.312,0.065s0.224,0.028,0.348,0.028c0.161,0,0.308-0.031,0.441-0.093
		c0.133-0.062,0.237-0.178,0.312-0.349c0.074-0.17,0.111-0.419,0.111-0.748v-6.213h1.402v6.204c0,0.57-0.088,1.029-0.265,1.379
		c-0.176,0.35-0.422,0.604-0.738,0.761C34.962,146.728,34.597,146.806,34.182,146.806z"/>
	<path fill="#F2622B" d="M39.921,139.683c0.681,0,1.203,0.147,1.565,0.441c0.362,0.294,0.543,0.745,0.543,1.351v3.381h-0.966
		l-0.27-0.688h-0.037c-0.217,0.273-0.446,0.471-0.687,0.595c-0.242,0.124-0.573,0.186-0.994,0.186c-0.452,0-0.826-0.13-1.124-0.39
		c-0.297-0.26-0.446-0.666-0.446-1.216c0-0.539,0.189-0.935,0.566-1.189c0.378-0.254,0.944-0.396,1.7-0.427l0.882-0.028v-0.223
		c0-0.266-0.07-0.461-0.209-0.585s-0.333-0.186-0.581-0.186s-0.489,0.036-0.724,0.106c-0.235,0.071-0.471,0.16-0.706,0.265
		l-0.455-0.938c0.266-0.136,0.566-0.246,0.901-0.33S39.563,139.683,39.921,139.683z M40.655,142.506l-0.539,0.019
		c-0.446,0.012-0.755,0.093-0.929,0.241c-0.173,0.149-0.26,0.344-0.26,0.585c0,0.21,0.062,0.36,0.186,0.45
		c0.124,0.09,0.285,0.135,0.483,0.135c0.297,0,0.548-0.088,0.752-0.265c0.205-0.177,0.307-0.426,0.307-0.748V142.506z"/>
	<path fill="#F2622B" d="M45.512,144.949c-0.755,0-1.339-0.207-1.75-0.622c-0.412-0.415-0.618-1.074-0.618-1.979
		c0-0.619,0.105-1.124,0.316-1.514c0.21-0.39,0.503-0.678,0.877-0.864c0.375-0.186,0.807-0.279,1.296-0.279
		c0.347,0,0.648,0.034,0.905,0.102c0.257,0.068,0.481,0.149,0.673,0.242l-0.409,1.068c-0.217-0.086-0.419-0.158-0.608-0.213
		s-0.376-0.083-0.562-0.083c-0.719,0-1.078,0.511-1.078,1.532c0,0.508,0.094,0.882,0.283,1.124c0.189,0.241,0.454,0.362,0.794,0.362
		c0.291,0,0.548-0.039,0.771-0.116c0.223-0.078,0.44-0.184,0.65-0.32v1.179c-0.21,0.136-0.432,0.234-0.664,0.293
		C46.158,144.919,45.865,144.949,45.512,144.949z"/>
	<path fill="#F2622B" d="M52.831,142.311c0,0.842-0.221,1.492-0.664,1.951c-0.443,0.458-1.045,0.687-1.806,0.687
		c-0.471,0-0.891-0.102-1.259-0.306c-0.368-0.205-0.658-0.503-0.868-0.896c-0.211-0.393-0.316-0.872-0.316-1.435
		c0-0.842,0.22-1.489,0.659-1.941c0.44-0.452,1.043-0.678,1.812-0.678c0.477,0,0.897,0.102,1.263,0.307
		c0.366,0.204,0.653,0.501,0.864,0.892S52.831,141.754,52.831,142.311z M49.33,142.311c0,0.501,0.082,0.881,0.246,1.138
		c0.164,0.257,0.432,0.386,0.804,0.386c0.365,0,0.63-0.128,0.794-0.386c0.164-0.257,0.246-0.636,0.246-1.138
		s-0.082-0.877-0.246-1.128c-0.164-0.25-0.432-0.376-0.803-0.376c-0.366,0-0.63,0.125-0.794,0.376
		C49.412,141.434,49.33,141.81,49.33,142.311z"/>
	<path fill="#F2622B" d="M55.357,137.797v1.644c0,0.192-0.006,0.381-0.019,0.566c-0.013,0.186-0.025,0.331-0.037,0.437h0.056
		c0.136-0.21,0.319-0.389,0.548-0.534s0.526-0.218,0.892-0.218c0.57,0,1.031,0.222,1.384,0.664c0.353,0.443,0.529,1.095,0.529,1.955
		c0,0.867-0.179,1.523-0.539,1.969c-0.359,0.446-0.83,0.668-1.412,0.668c-0.372,0-0.664-0.066-0.877-0.2
		c-0.214-0.133-0.389-0.283-0.525-0.45h-0.093l-0.232,0.557h-1.059v-7.059H55.357z M56.351,140.797
		c-0.359,0-0.613,0.113-0.762,0.339c-0.148,0.226-0.226,0.565-0.232,1.017v0.148c0,0.489,0.073,0.865,0.218,1.128
		s0.41,0.395,0.794,0.395c0.285,0,0.511-0.132,0.678-0.395c0.167-0.263,0.25-0.642,0.25-1.138c0-0.495-0.085-0.868-0.255-1.119
		C56.873,140.923,56.642,140.797,56.351,140.797z"/>
</g>
<g>
	<path fill="#F2622B" d="M311.911,144.856l-1.597-5.201h-0.037c0.006,0.124,0.015,0.31,0.028,0.557
		c0.012,0.248,0.024,0.514,0.037,0.799c0.012,0.285,0.019,0.539,0.019,0.762v3.083h-1.254v-6.631h1.913l1.57,5.071h0.028
		l1.663-5.071h1.913v6.631h-1.31v-3.139c0-0.21,0.005-0.452,0.014-0.725s0.019-0.531,0.028-0.775s0.017-0.429,0.023-0.553h-0.037
		l-1.709,5.192H311.911z"/>
	<path fill="#F2622B" d="M319.833,139.683c0.681,0,1.204,0.147,1.565,0.441c0.362,0.294,0.543,0.745,0.543,1.351v3.381h-0.965
		l-0.27-0.688h-0.037c-0.217,0.273-0.446,0.471-0.688,0.595c-0.242,0.124-0.573,0.186-0.994,0.186c-0.452,0-0.826-0.13-1.124-0.39
		c-0.297-0.26-0.446-0.666-0.446-1.216c0-0.539,0.189-0.935,0.566-1.189c0.378-0.254,0.944-0.396,1.7-0.427l0.882-0.028v-0.223
		c0-0.266-0.069-0.461-0.209-0.585s-0.333-0.186-0.581-0.186s-0.489,0.036-0.724,0.106c-0.235,0.071-0.471,0.16-0.706,0.265
		l-0.455-0.938c0.266-0.136,0.566-0.246,0.901-0.33S319.475,139.683,319.833,139.683z M320.567,142.506l-0.538,0.019
		c-0.446,0.012-0.756,0.093-0.929,0.241c-0.173,0.149-0.26,0.344-0.26,0.585c0,0.21,0.062,0.36,0.186,0.45
		c0.124,0.09,0.285,0.135,0.483,0.135c0.297,0,0.548-0.088,0.752-0.265c0.204-0.177,0.307-0.426,0.307-0.748V142.506z"/>
	<path fill="#F2622B" d="M326.195,139.692c0.068,0,0.148,0.003,0.242,0.009c0.092,0.006,0.166,0.016,0.223,0.028l-0.103,1.3
		c-0.05-0.012-0.114-0.023-0.195-0.032c-0.08-0.009-0.151-0.014-0.214-0.014c-0.234,0-0.461,0.042-0.678,0.125
		s-0.392,0.218-0.524,0.404c-0.134,0.186-0.2,0.44-0.2,0.762v2.582h-1.383v-5.071h1.049l0.205,0.854h0.064
		c0.148-0.26,0.353-0.483,0.613-0.668C325.555,139.785,325.855,139.692,326.195,139.692z"/>
	<path fill="#F2622B" d="M328.787,144.856l-1.932-5.071h1.448l0.976,2.889c0.056,0.173,0.099,0.353,0.13,0.539
		c0.03,0.186,0.052,0.353,0.065,0.501h0.037c0.018-0.334,0.086-0.681,0.204-1.04l0.976-2.889h1.448l-1.932,5.071H328.787z"/>
	<path fill="#F2622B" d="M333.561,137.797c0.205,0,0.381,0.048,0.529,0.144c0.148,0.096,0.223,0.274,0.223,0.534
		c0,0.254-0.074,0.431-0.223,0.53s-0.324,0.148-0.529,0.148c-0.211,0-0.389-0.049-0.533-0.148c-0.146-0.099-0.219-0.275-0.219-0.53
		c0-0.26,0.072-0.438,0.219-0.534C333.172,137.845,333.35,137.797,333.561,137.797z M334.248,139.785v5.071h-1.384v-5.071H334.248z"
		/>
	<path fill="#F2622B" d="M338.576,139.692c0.545,0,0.98,0.147,1.309,0.441s0.492,0.766,0.492,1.416v3.307h-1.383v-2.963
		c0-0.365-0.065-0.639-0.195-0.822c-0.131-0.183-0.338-0.274-0.623-0.274c-0.42,0-0.709,0.144-0.863,0.432
		c-0.154,0.288-0.232,0.701-0.232,1.24v2.387h-1.383v-5.071h1.059l0.186,0.65h0.074c0.16-0.26,0.383-0.449,0.664-0.566
		S338.26,139.692,338.576,139.692z"/>
</g>
<g>
	<circle fill="#FFFFFF" cx="237.837" cy="206.555" r="88.861"/>
	<path d="M237.837,297.916c-50.377,0-91.361-40.984-91.361-91.361s40.984-91.361,91.361-91.361s91.361,40.984,91.361,91.361
		S288.214,297.916,237.837,297.916L237.837,297.916z M237.837,120.193c-47.62,0-86.361,38.742-86.361,86.361
		c0,47.62,38.742,86.361,86.361,86.361s86.361-38.741,86.361-86.361C324.198,158.935,285.457,120.193,237.837,120.193
		L237.837,120.193z"/>
</g>
<path d="M317.012,178.223H157.491c-0.276,0-0.5-0.224-0.5-0.5s0.224-0.5,0.5-0.5h159.107l1.093-5.8
	c0.051-0.271,0.313-0.448,0.584-0.398c0.271,0.051,0.45,0.313,0.398,0.584l-1.17,6.207
	C317.459,178.052,317.252,178.223,317.012,178.223L317.012,178.223z"/>
<path d="M310.265,172.104H164.684c-0.151,0-0.293-0.068-0.389-0.185c-0.095-0.117-0.132-0.271-0.101-0.418l2.875-13.563
	c0.057-0.27,0.326-0.443,0.593-0.386c0.271,0.058,0.443,0.323,0.386,0.593l-2.748,12.96h144.551l2.017-10.507
	c0.052-0.271,0.312-0.45,0.585-0.397c0.271,0.052,0.449,0.314,0.397,0.585l-2.095,10.913
	C310.711,171.934,310.505,172.104,310.265,172.104L310.265,172.104z"/>
<path d="M235.103,172.104c-0.03,0-0.061-0.002-0.092-0.008c-0.271-0.05-0.451-0.312-0.4-0.583l9.488-51.11
	c0.05-0.271,0.311-0.453,0.583-0.4c0.271,0.05,0.451,0.312,0.4,0.583l-9.488,51.11C235.549,171.937,235.339,172.104,235.103,172.104
	L235.103,172.104z"/>
<g>
	<polygon fill="#FFFFFF" points="215.977,143.443 231.748,143.443 227.274,160.041 212.214,160.041 	"/>
	<path d="M227.658,160.541h-16.069l3.989-17.598h16.824L227.658,160.541L227.658,160.541z M212.84,159.541h14.051l4.204-15.598
		h-14.719L212.84,159.541L212.84,159.541z"/>
</g>
<g>
	<line fill="#FFFFFF" x1="191.113" y1="143.443" x2="206.411" y2="143.443"/>
	<polygon points="206.411,143.943 191.113,143.943 191.113,142.943 206.411,142.943 206.411,143.943 	"/>
</g>
<g>
	<line fill="#FFFFFF" x1="191.798" y1="149.092" x2="203.801" y2="149.092"/>
	<polygon points="203.801,149.592 191.798,149.592 191.798,148.592 203.801,148.592 203.801,149.592 	"/>
</g>
<g>
	<line fill="#FFFFFF" x1="183.087" y1="155.209" x2="202.858" y2="155.209"/>
	<polygon points="202.858,155.709 183.087,155.709 183.087,154.709 202.858,154.709 202.858,155.709 	"/>
</g>
<polygon fill="#191919" points="237.362,202.622 232.65,178.123 233.632,177.934 238.345,202.433 237.362,202.622 "/>
<polygon fill="#191919" points="268.164,202.622 263.453,178.123 264.436,177.934 269.146,202.433 268.164,202.622 "/>
<polygon fill="#191919" points="282.715,227.854 209.903,227.854 209.903,226.854 282.41,226.854 305.363,211.454 253.831,212.455 
	207.126,212.455 186.324,224.737 185.815,223.876 206.853,211.455 253.821,211.455 308.747,210.388 282.715,227.854 "/>
<g>
	<polygon fill="#FFFFFF" points="229.786,193.281 254.482,197.029 240.13,244.447 216.54,240.87 	"/>
	<path d="M240.483,245.007l-24.576-3.727l13.516-48.56l25.705,3.9L240.483,245.007L240.483,245.007z M217.173,240.46l22.604,3.428
		l14.059-46.45l-23.688-3.596L217.173,240.46L217.173,240.46z"/>
</g>
<g>
	<polygon fill="#FFFFFF" points="230.805,195.598 252.008,198.816 239.605,240.063 219.352,236.992 	"/>
	<path d="M239.959,240.622l-21.24-3.22l11.722-42.365l22.211,3.371L239.959,240.622L239.959,240.622z M219.984,236.582l19.267,2.921
		l12.113-40.278l-20.195-3.066L219.984,236.582L219.984,236.582z"/>
</g>
<g>
	<polygon fill="#FFFFFF" points="239.026,206.555 237.421,211.961 242.244,212.689 243.712,207.264 	"/>
	<path fill="#191919" d="M242.61,213.25l-5.832-0.881l1.893-6.374l5.67,0.858L242.61,213.25L242.61,213.25z M238.064,211.553
		l3.813,0.576l1.206-4.455l-3.702-0.56L238.064,211.553L238.064,211.553z"/>
</g>
<g>
	<line fill="#FFFFFF" x1="230.372" y1="213.492" x2="241.249" y2="215.141"/>
	<polygon points="241.174,215.635 230.297,213.986 230.447,212.998 241.324,214.646 241.174,215.635 	"/>
</g>
<g>
	<line fill="#FFFFFF" x1="229.205" y1="217.102" x2="238.433" y2="218.506"/>
	<polygon points="238.358,219 229.13,217.596 229.28,216.607 238.508,218.012 238.358,219 	"/>
</g>
<g>
	<path fill="#FFFFFF" d="M230.9,235.107l17.904-4.201c-4.707-11.138-22.766-4.023-22.766-4.023L230.9,235.107z"/>
	<path fill="#191919" d="M230.656,235.678l-5.347-9.045l0.546-0.215c0.235-0.093,5.837-2.273,11.685-2.273
		c5.938,0,9.883,2.209,11.724,6.567l0.231,0.546L230.656,235.678L230.656,235.678z M226.774,227.146l4.369,7.392l16.952-3.979
		c-1.767-3.593-5.315-5.414-10.556-5.414C232.915,225.145,228.328,226.602,226.774,227.146L226.774,227.146z"/>
</g>
<path fill="#191919" d="M226.825,224.492c-1.857-1.852-24.035-2.576-28.465-2.576c-6.594-0.469-15.935-0.879-17.583-3.074
	c-2.83-3.761-3.77-11.303-4.24-15.547c-0.792-7.14-1.216-14.303-2.326-21.41c-1.421-9.105-3.958-18.193-7.618-26.789
	c-10.571,14.365-16.821,32.106-16.821,51.311c0,9.593,1.562,18.82,4.44,27.446c3.458,5.077,7.558,9.536,13.848,13.732
	c9.42,5.649,18.603-0.251,28.963-2.603c7.065-1.414,37.459-6.826,35.323-11.303C231.036,230.939,229.064,226.725,226.825,224.492z"
	/>
<path fill="#F2622B" d="M242.784,281.303h-5v-10h5V281.303L242.784,281.303z M242.784,261.303h-5v-10h5V261.303L242.784,261.303z
	 M242.784,241.303h-5v-10h5V241.303L242.784,241.303z M242.784,221.303h-5v-10h5V221.303L242.784,221.303z M242.784,201.303h-5v-10
	h5V201.303L242.784,201.303z M242.784,181.303h-5v-10h5V181.303L242.784,181.303z M242.784,161.303h-5v-10h5V161.303
	L242.784,161.303z M242.784,141.303h-5v-10h5V141.303L242.784,141.303z"/>
<path fill="#F2622B" d="M314.846,209.055h-10v-5h10V209.055L314.846,209.055z M294.846,209.055h-10v-5h10V209.055L294.846,209.055z
	 M274.846,209.055h-10v-5h10V209.055L274.846,209.055z M254.846,209.055h-10v-5h10V209.055L254.846,209.055z M234.846,209.055h-10
	v-5h10V209.055L234.846,209.055z M214.846,209.055h-10v-5h10V209.055L214.846,209.055z M194.846,209.055h-10v-5h10V209.055
	L194.846,209.055z M174.846,209.055h-10v-5h10V209.055L174.846,209.055z"/>
</svg>
